<?xml version="1.0" encoding="utf-8"?>
<!-- Generator: Adobe Illustrator 22.1.0, SVG Export Plug-In . SVG Version: 6.00 Build 0)  -->
<svg version="1.1" id="cms" xmlns="http://www.w3.org/2000/svg" xmlns:xlink="http://www.w3.org/1999/xlink" x="0px" y="0px"
	 viewBox="0 0 660 540" style="enable-background:new 0 0 660 540;" xml:space="preserve">
<g id="Group_2050" transform="translate(-9448.974 -1397)">
	<path id="Path_512" style="opacity:0.4;fill:#A8C4E5;enable-background:new    ;" d="M9974.8,1828.6l-92.5,51.6
		c-2.1,1.1-2.9,3.6-1.8,5.3c1.1,1.7,3.6,2.2,5.7,1.1l96-53.6L9974.8,1828.6z"/>
	<path id="Path_513" style="opacity:0.4;fill:#A8C4E5;enable-background:new    ;" d="M9932.5,1812.2l-7.6-4.2l-85.2,47.5
		c-2.1,1.1-2.9,3.6-1.8,5.3c1.1,1.7,3.6,2.2,5.7,1.1L9932.5,1812.2z"/>
	<path id="Path_514" style="opacity:0.4;fill:#A8C4E5;enable-background:new    ;" d="M9797.8,1711.3l86.9-50.2
		c1.5-0.9,3.4-0.9,4.9,0l206.9,119.4c2.3,1.4,3.1,4.3,1.8,6.7c-0.4,0.7-1,1.3-1.8,1.8l-99.9,57.7L9797.8,1711.3z"/>
	<path id="Path_515" style="fill:#D7E8F7;" d="M9681.1,1429.6l21.8-12.2l17.1,24.7c0,0-16.2,19.9-17.1,20.6
		C9702,1463.4,9681.1,1429.6,9681.1,1429.6z"/>
	<path id="Path_516" style="fill:#D7E8F7;" d="M10020,1823.6l3.2-206c0.2-9.2-5-19.8-11.5-23.6l-300.4-176.3
		c-6.5-3.8-11.9,0.6-11.9,9.8l-2.9,207.4c-0.2,9.2,5,19.8,11.5,23.6l276.3,162.2l-7.4,17.3l16.7,9.6l20.5-11.3
		C10017.7,1833.9,10019.9,1828.2,10020,1823.6z"/>
	<path id="Path_517" style="fill:#FFFFFF;" d="M9986.1,1846.9l-300.3-176.2c-6.5-3.8-11.6-14.4-11.5-23.6l2.9-207.4
		c0.2-9.2,5.5-13.6,11.9-9.8l300.3,176.2c6.5,3.8,13.2,15,13.1,24.2l-4.5,206.8C9998,1846.2,9992.6,1850.6,9986.1,1846.9z"/>
	<g id="Group_1760" transform="translate(9646.61 1411.425)">
		<g id="Group_1758" transform="translate(0 0)">
			<path id="Path_518" style="opacity:0.4;fill:#A8C4E5;enable-background:new    ;" d="M337,272.9L29.1,92.2l1.6-66.2l308.1,177.7
				L337,272.9z"/>
			<path id="Path_519" style="fill:#4367C7;" d="M325.8,265.2L0,74l2.9-54.7l324.6,190.5L325.8,265.2z"/>
			<path id="Path_520" style="fill:#DCF1FF;" d="M29.6,59.9c-0.2,5.7-4.3,8-9.1,5.1c-4.9-2.9-8.7-9.8-8.5-15.5s4.3-8,9.1-5.1
				C26,47.2,29.8,54.2,29.6,59.9z"/>
			
				<ellipse id="Ellipse_29" transform="matrix(0.8782 -0.4783 0.4783 0.8782 -28.2197 30.2764)" style="fill:#EBD265;" cx="45.3" cy="70.5" rx="7.4" ry="12.5"/>
			<path id="Path_521" style="fill:#2C4482;" d="M78.6,91.4c-0.2,5.7-4.3,8-9.1,5.1c-4.9-2.9-8.7-9.8-8.5-15.5s4.3-8,9.1-5.1
				C75,78.7,78.9,85.7,78.6,91.4z"/>
			<g id="Group_1757" transform="translate(257.16 166.941)">
				<g id="Group_1756">
					<path id="Path_522" style="fill:#FFFFFF;" d="M31.7,39.8c2,8.7-3.2,13.8-11.9,11.6C11.2,49,2.6,40.1,0.4,31.4
						c-2-8.7,3.2-13.8,11.9-11.6C21,22.1,29.7,31.1,31.7,39.8z M27.8,38.7c-1.5-6.5-8-13.2-14.5-15C6.9,22,2.9,25.8,4.4,32.3
						c1.5,6.5,8,13.1,14.5,15S29.4,45.2,27.8,38.7L27.8,38.7z"/>
				</g>
			</g>
		</g>
		<g id="Group_1759" transform="translate(281.646 195.406)">
			<path id="Path_523" style="fill:#FFFFFF;" d="M13.3,37L13.3,37c-1.2,0.9-2.9,0.7-3.8-0.5c0,0-0.1-0.1-0.1-0.1l-9-12.6
				c-0.9-1.3-0.6-3,0.7-3.9l0,0C2.4,19,4,19.2,5,20.4c0,0,0.1,0.1,0.1,0.1l9,12.6C14.9,34.3,14.6,36,13.3,37
				C13.4,36.9,13.4,37,13.3,37z"/>
		</g>
	</g>
	<g id="Group_1761" transform="translate(9698.501 1518.202)">
		<path id="Path_524" style="fill:#ADD5F7;" d="M63.5,166.5L5.1,133.3c-2.9-1.7-5.3-6.1-5.1-9.9l3.7-99.6C3.9,20,6.4,18.3,9.4,20
			l58.4,33.2c2.9,1.7,5.3,6.1,5.1,9.9l-3.7,99.6C69.1,166.5,66.6,168.2,63.5,166.5z"/>
		<path id="Path_525" style="fill:#4367C7;" d="M60.3,75.3L14.9,49.6c-2.4-1.6-3.8-4.3-3.7-7.2l0,0c0.1-2.7,2-4,4.1-2.7l45.4,25.8
			c2.4,1.6,3.8,4.3,3.7,7.2l0,0C64.3,75.3,62.4,76.6,60.3,75.3z"/>
		<path id="Path_526" style="fill:#FFFFFF;" d="M63.5,94.8L11.8,65.5l0.3-7.9l51.7,29.3L63.5,94.8z"/>
		<path id="Path_527" style="fill:#FFFFFF;" d="M62.9,112.8L11.1,83.5l0.3-7.9L63.2,105L62.9,112.8z"/>
		<path id="Path_528" style="fill:#FFFFFF;" d="M62.3,130.9l-51.7-29.4l0.3-7.9L62.5,123L62.3,130.9z"/>
		<path id="Path_529" style="fill:#FFFFFF;" d="M35,132.8L9.8,118.6l0.3-7.9l25.2,14.2L35,132.8z"/>
	</g>
	<g id="Group_1763" transform="translate(9786.424 1571.185)">
		<path id="Path_530" style="fill:#ADD5F7;" d="M161.7,237.5L5,142.9c-2.9-1.8-5.2-6.6-5-10.7l5.4-108c0.2-4.1,2.8-6,5.7-4.2
			l156.7,94.7c2.9,1.8,5.2,6.6,5,10.7l-5.4,108C167.2,237.4,164.6,239.3,161.7,237.5z"/>
		<g id="Group_1762" transform="translate(12.782 22.717)">
			<path id="Path_531" style="fill:#FF5C97;" d="M145,114.8L5.5,30.6c-2.1-1.3-3.8-4.8-3.6-7.7l0,0c0.2-2.9,2-4.3,4.2-3l139.5,84.3
				c2.1,1.3,3.8,4.8,3.6,7.7l0,0C149,114.7,147.2,116.1,145,114.8z"/>
			<path id="Path_532" style="fill:#4367C7;" d="M143.1,132.9l-54.4-32.9c-1.9-1.4-3-3.7-2.9-6.1l0,0c0.2-2.3,1.6-3.4,3.3-2.4
				l54.4,32.9c1.7,1.1,2.9,3.8,2.9,6.1l0,0C146.2,132.8,144.8,134,143.1,132.9z"/>
			<path id="Path_533" style="fill:#4367C7;" d="M60.4,82.9L6,50c-1.9-1.4-3-3.7-2.9-6.1l0,0c0.2-2.3,1.6-3.4,3.3-2.4l54.4,32.9
				c1.9,1.4,3,3.7,2.9,6.1l0,0C63.5,82.9,62,84,60.4,82.9z"/>
			<path id="Path_534" style="fill:#FFFFFF;" d="M145.2,154.3l-60.5-36.6l0.4-8.5l60.6,36.6L145.2,154.3z"/>
			<path id="Path_535" style="fill:#FFFFFF;" d="M62.5,104.4L1.9,67.7l0.5-8.5l60.5,36.6L62.5,104.4z"/>
			<path id="Path_536" style="fill:#FFFFFF;" d="M144.2,173.9l-60.5-36.6l0.4-8.5l60.6,36.6L144.2,173.9z"/>
			<path id="Path_537" style="fill:#FFFFFF;" d="M61.5,123.9L0.9,87.3l0.5-8.5l60.6,36.6L61.5,123.9z"/>
			<path id="Path_538" style="fill:#FFFFFF;" d="M25,120.9L0,105.8l0.5-8.5l24.9,15.1L25,120.9z"/>
			<path id="Path_539" style="fill:#FFFFFF;" d="M107.7,170.8l-24.9-15l0.4-8.5l25,15L107.7,170.8z"/>
		</g>
	</g>
	<g id="Group_1765" transform="translate(9757.655 1644.729)">
		<path id="Path_540" style="fill:#A8C4E5;" d="M96.9,64.5L19.5,19.8c-2.2-1.3-5.1,0.5-5.1,3.2l-1.5,55.5c-0.1,2.2,1,4.3,2.9,5.4
			l8.2,4.8l0,0L88.8,126v-0.1l4.8,2.8c1.6,0.8,3.6,0.1,4.4-1.5c0.2-0.4,0.3-0.9,0.3-1.4l1.5-56.2C99.8,67.5,98.7,65.6,96.9,64.5z"/>
		<g id="Group_1764" transform="translate(0 6.648)">
			<path id="Path_541" style="fill:#FFFFFF;" d="M80.8,128.8L2.9,83.8c-1.9-1.1-3-3.2-2.9-5.4l1.5-55.5c0.1-2.6,2.9-4.5,5.1-3.2
				l77.4,44.7c1.9,1.1,3,3.1,2.9,5.3L85.4,126C85.3,128.4,82.7,130,80.8,128.8z"/>
			<path id="Path_542" style="fill:#27E0C0;" d="M11.1,88.7l11.3-12.3c1.8-2.2,5-2.5,7.2-0.7c0.6,0.5,1.1,1.1,1.4,1.9l9.5,23
				l12.3-17.2c2.6-3.6,7.9-3.1,9.2,1l13.8,41.9L11.1,88.7z"/>
			<path id="Path_543" style="fill:#FFD22D;" d="M31.4,52c-0.1,3.9-2.5,5.7-5.4,4.2c-2.9-1.7-5.1-6.1-4.9-10
				c0.1-3.9,2.5-5.7,5.4-4.2C29.4,43.6,31.6,48.2,31.4,52z"/>
		</g>
	</g>
	<g id="Group_1778" transform="translate(9468.785 1585.148)">
		
			<ellipse id="Ellipse_30" transform="matrix(5.427895e-03 -1 1 5.427895e-03 -136.6561 198.8304)" style="opacity:0.4;fill:#A8C4E5;enable-background:new    ;" cx="31.6" cy="168.1" rx="13.4" ry="23.2"/>
		<path id="Path_544" style="fill:#2C4482;" d="M25.6,157.5l-9.9,2l-1.4,3.5c-0.3,2.5-0.3,3.8,1.4,5.1c1.4,1.1,4.2,0.2,5.7-0.5
			l6.3-3.9c4.7-2.6,4.4-4.5,3.9-6.1l0,0C30.8,155.9,28.6,156.3,25.6,157.5z"/>
		<path id="Path_545" style="fill:#2C4482;" d="M46.7,169.8l-9.6-3.2l-2.9,2.3c-1.5,2-2.2,3.1-1.4,5.1c0.6,1.7,3.5,2.3,5.1,2.5
			l7.4-0.1c5.4,0.2,6-1.7,6.4-3.3l0,0C52,171,49.9,170.2,46.7,169.8z"/>
		<g id="Group_1766" transform="translate(2.46 26.267)">
			<path id="Path_546" style="fill:#FFC2B0;" d="M10.3,20.6c-5.4,8.2-7.8,18.7-9.9,28.1c-0.5,1.7-0.5,3.6-0.1,5.3
				c1.8,6.6,3.9,12.8,4.6,19.8c0.4,3.5,5.9,3.5,5.5,0c-0.7-6.4-2-12.8-4-19c-0.4-1.1-0.8-2.3-1.3-3.5c0.4,1.1-0.2,1.8,0.1,0.9
				c0.2-0.6,0.2-1.1,0.4-1.7c2-9.1,4.2-19.3,9.4-27.1C17.1,20.4,12.3,17.7,10.3,20.6L10.3,20.6z"/>
		</g>
		<path id="Path_547" style="fill:#88BDEB;" d="M11.3,49.1C7.6,55.4,5,66.2,2.6,74.9c-0.9,2.4-0.3,4.6,1.2,4.5L8.8,80
			c1.3-0.1,3.6-2.8,4.2-4.8L19.5,53c1.1-3.6,0.3-6.7-1.8-7.2l-0.5-0.1C16.8,44.5,14,44.5,11.3,49.1z"/>
		<path id="Path_548" style="fill:#283D75;" d="M28.3,89.5L2.8,104.2c-0.9,0.5-2,0.2-2.5-0.6c-0.2-0.3-0.3-0.7-0.3-1V84.8
			c0-0.7,0.4-1.3,0.9-1.7l25.5-14.7c0.9-0.5,2-0.3,2.5,0.6c0.2,0.3,0.3,0.7,0.3,1.1v17.8C29.3,88.5,28.9,89.1,28.3,89.5z"/>
		<path id="Path_549" style="fill:#FFFFFF;" d="M18.7,84.4c-0.1,2.3-1.3,4.4-3.2,5.6c-1.8,1.1-3.2,0.2-3.2-1.9
			c0.1-2.3,1.3-4.4,3.2-5.6C17.2,81.5,18.7,82.4,18.7,84.4z"/>
		<path id="Path_550" style="fill:#FFC2B0;" d="M14.5,100.9l-1.9,0.8c-1.4,0.7-3.1,0-3.8-1.4c0,0,0,0,0,0l0,0
			c-0.7-1.4,0-3.1,1.4-3.8c0,0,0,0,0,0l1.9-0.8c1.4-0.7,3.1,0,3.8,1.4c0,0,0,0,0,0l0,0C16.6,98.5,16,100.2,14.5,100.9
			C14.5,100.9,14.5,100.9,14.5,100.9z"/>
		<path id="Path_551" style="opacity:0.46;fill:#FFFFFF;enable-background:new    ;" d="M36,29l0.1,1.1c0,0,0.2,3.2-2.9,1.5
			s-3-5.6-3-5.6S32.5,25.7,36,29z"/>
		<path id="Path_552" style="fill:#513554;" d="M33.1,31.6c4,2.1,3.9-1.6,3.9-1.6l0,0l-0.2-1.3c-4.5-3.9-7.4-3.7-7.4-3.7
			S29.1,29.6,33.1,31.6z M30.3,26.2c0,0,2.3-0.2,5.7,2.9v0.9c0,0,0.1,2.7-2.9,1.1C31.4,30.1,30.3,28.2,30.3,26.2L30.3,26.2z"/>
		<path id="Path_553" style="fill:#513554;" d="M38.5,30.8l-2.4-1.1L36,28.3l2.4,1.1L38.5,30.8z"/>
		<path id="Path_554" style="fill:#513554;" d="M29.8,26.2l-0.5-0.2c-0.3-0.2-0.4-0.4-0.5-0.8l0,0c0-0.3,0.2-0.5,0.4-0.3l0.5,0.2
			c0.3,0.2,0.4,0.4,0.5,0.8l0,0C30.1,26.2,30,26.3,29.8,26.2z"/>
		<path id="Path_555" style="fill:#513554;" d="M45.2,33.3L44.8,33c-0.3-0.2-0.4-0.4-0.5-0.8l0,0c0-0.3,0.2-0.5,0.4-0.3l0.5,0.2
			c0.3,0.2,0.4,0.4,0.5,0.8l0,0C45.7,33.2,45.5,33.3,45.2,33.3z"/>
		<g id="Group_1771" transform="translate(37.62 9.768)">
			<g id="Group_1770">
				<g id="Group_1768">
					<g id="Group_1767">
						<path id="Path_556" style="fill:#2C4482;" d="M7.3,22.4c-2-1.8-4.6-2.8-7.3-3l0.2,1.3l0,0c0.5,2.5,2.2,4.5,4.5,5.4
							C8.7,27.7,7.3,22.4,7.3,22.4z M4.5,25.5c-1.7-0.7-3-2.2-3.4-4l-0.2-1c2.1,0.1,4.1,0.9,5.7,2.3C6.6,22.8,7.6,26.6,4.5,25.5
							L4.5,25.5z"/>
					</g>
				</g>
				<g id="Group_1769" transform="translate(1.631 1.631)">
					<path id="Path_557" style="fill:#2C4482;" d="M0.1,20.4L0.1,20.4C0,20.3,0,20.1,0,20.1l0.8-0.8c0.1-0.1,0.2,0,0.3,0.1l0,0
						c0.1,0.2,0.2,0.3,0.1,0.3l-0.8,0.8C0.3,20.6,0.2,20.6,0.1,20.4C0.1,20.5,0.1,20.5,0.1,20.4z"/>
				</g>
			</g>
		</g>
		<path id="Path_558" style="fill:#FCFEFF;" d="M30.7,27.8L30.7,27.8c-0.1-0.2-0.2-0.3-0.1-0.3l0.8-0.8c0.1-0.1,0.2,0,0.3,0.1l0,0
			c0.1,0.2,0.2,0.3,0.1,0.3L31,27.8C31,27.9,30.8,27.9,30.7,27.8C30.8,27.8,30.8,27.8,30.7,27.8z"/>
		<g id="Group_1774" transform="translate(29.582 84.545)">
			<g id="Group_1773">
				<g id="Group_1772">
					<path id="Path_559" style="fill:#2C4482;" d="M0.3,24.6C4,35.4,4.3,46.9,4,58.3c-0.2,8.4-1.6,16.9-1.4,25.3
						c0.2,5.5,8.8,5.5,8.6,0c-0.2-8.6,1.1-17.4,1.4-26c0.3-11.8-0.2-24-4-35.3C6.8,17.1-1.6,19.4,0.3,24.6L0.3,24.6z"/>
				</g>
			</g>
		</g>
		<g id="Group_1776" transform="translate(12.373 74.767)">
			<g id="Group_1775">
				<path id="Path_560" style="fill:#2C4482;" d="M0.2,24.7c1.8,7,3,14.2,3.5,21.5c0.4,4.2,0.9,8.3,0.5,12.5
					C3.2,67.2,1.6,76,1.7,84.6c0.1,5.5,8.6,5.5,8.6,0c-0.1-8.8,1.6-17.6,2.5-26.3c0.5-4.4-0.2-8.6-0.6-13
					c-0.6-7.7-1.8-15.4-3.7-22.9C7,17-1.3,19.3,0.2,24.7L0.2,24.7z"/>
			</g>
		</g>
		<path id="Path_561" style="fill:#2C4482;" d="M19.6,110.8L19.6,110.8c0.8,0.9-2.6-3.4-1.6-2.8c2.1,1.3,14.1,9.4,16.5,9.4
			c3,0.1,1.3-2.9,3.5-4.8c2.1-1.9,2.6-5,2.8-7.9c0.1-0.8,0-1.6-0.2-2.3c-0.4-0.8-1-1.4-1.7-1.8c-5.3-4-15.7-13.9-23.1-10.7
			C7.3,93.5,15.8,106.5,19.6,110.8z"/>
		<path id="Path_562" style="fill:#DBEFFF;" d="M13.4,47.3c-1.6,2-1.4,3.2-1.3,6c0.1,2.7,1.9,5.1,4.5,5.7l26.5,7.5
			c0,0,1.5-10.2-3.7-13.3c-2.8-1.7-7.2-4.3-10.7-6.4C23.7,43.8,17,42.6,13.4,47.3z"/>
		<path id="Path_563" style="fill:#FFC2B0;" d="M25.5,47l2.3-10l6.1,4.1L32,50.2C31.8,51.7,25,50.4,25.5,47z"/>
		<path id="Path_564" style="fill:#FFC2B0;" d="M29.2,22.4c0,0-6.1-4.2-6.2,6.1c0,6.9,4,13.3,10.3,16.2c3.7,1.7,8.2-0.5,8.4-4.1
			c0.9-5.2,0.9-10.1-0.8-14.4c0.2-4.3-2.7-2.8-7.9-3.1L29.2,22.4z"/>
		<path id="Path_565" style="fill:#715154;" d="M25.7,42.5c0,0-7.1-2.6-6.4-12.6C20,19.1,29.9,20,35.4,19.5c2.4-0.2,4.2-0.6,6.6,1.7
			c2.3,2,0.2,6.6-3.1,6.9c-1.3,0.2-0.7,3.6-1,4.8c-0.5,2.1-1.8,3.2-2.3,5.2c-0.5,2-3.3,5-5.2,5.2C27.2,43.7,25.7,42.5,25.7,42.5z"/>
		<path id="Path_566" style="fill:#DBEFFF;" d="M11.9,95.4c-1.7-0.7-1.3-29.7,0.2-45.8l29.9,14.2c-0.2,13.7-1.9,24.5-0.2,41.1
			L11.9,95.4z"/>
		<path id="Path_567" style="fill:#DBEFFF;" d="M31.9,107.8c-7.4-2.7-14.4-5.7-18.6-10.7c-2-1.2-1.7-3.2,0.6-4.6l0,0
			c2.3-1.4,5.9-1.5,7.9-0.3l18.6,10.7c2,1.2,1.7,3.2-0.6,4.6l0,0C37.5,108.9,33.9,109,31.9,107.8z"/>
		<path id="Path_568" style="fill:#DBEFFF;" d="M42.1,63.8l-4.9-2.3c-0.2,13.3-1.8,24-0.2,40.3h-0.1c-0.1,1.2-0.9,2.2-2,2.6l0,0
			c-2.3,1.4-5.9,1.5-7.9,0.3c-3.5-1.2-6.8-2.6-10.1-4.2c4.1,3.1,9.4,5.3,15,7.3c2,1.2,5.6,1.1,7.9-0.3l0,0c1.1-0.5,1.8-1.5,2-2.6
			h0.1C40.2,88.3,41.9,77.5,42.1,63.8z"/>
		<path id="Path_569" style="fill:#2C4482;" d="M45.1,33.6L36,34.5c-0.3,0-0.6-0.2-0.7-0.5l0,0c0-0.3,0.2-0.6,0.5-0.7l9.1-0.9
			c0.3,0,0.6,0.2,0.7,0.5l0,0C45.7,33.2,45.5,33.5,45.1,33.6C45.2,33.6,45.1,33.6,45.1,33.6z"/>
		<path id="Path_570" style="fill:#DCEFFF;" d="M36,51.2c-6.9-1.1-11.5,3.2-13.1-6.6l0,0c1-0.6,2.3-0.3,2.9,0.7
			c1.5,1.9,4,2.9,6.4,2.4c0.8-0.1,1.6,0.3,2.1,1L36,51.2z"/>
		<g id="Group_1777" transform="translate(37.079 38.152)">
			<path id="Path_571" style="fill:#FFC2B0;" d="M0,22c0.5,5.7,1.4,11,3.8,16.2C5.5,42,7.3,47.3,11,49.7c8.4,5.4,17.4-8.4,21.3-13.6
				c2.1-2.9-2.6-5.6-4.8-2.8c-2.3,2.9-10.6,15.9-14.8,10.3c-4.5-6-6.6-14.4-7.2-21.7C5.2,18.5-0.3,18.5,0,22L0,22z"/>
		</g>
		<path id="Path_572" style="fill:#FFFFFF;" d="M34.3,60.1c1.7,14.1,6.1,23.1,12.3,27.7c3.2,1.8,6.3-3.3,5.1-6.4
			c-6.1-5.4-8.3-14-8.9-23.7c-0.9-2-3.2-3.1-5.3-2.5l0,0C35.3,55.7,33.8,57.9,34.3,60.1z"/>
		<path id="Path_573" style="fill:#FFC2B0;" d="M62.2,76.6l0.8,0.6c1.5,1.2,3.7,1,4.9-0.5c0,0,0,0,0,0l2.7-3.3
			c1.2-1.5,1-3.7-0.5-4.9c0,0,0,0,0,0l-0.8-0.6c-1.5-1.2-3.7-1-4.9,0.5c0,0,0,0,0,0l-2.7,3.3C60.5,73.1,60.7,75.3,62.2,76.6
			C62.2,76.5,62.2,76.5,62.2,76.6z"/>
		<path id="Path_574" style="fill:#715154;" d="M32.2,38.9c-0.4,0.2-1.1,7.5,5,6.3c6-1.1,4.8-7.3,4.8-7.3s-4.8,1.3-6.1-4.7
			C34.5,27.3,32.2,38.9,32.2,38.9z"/>
		<path id="Path_575" style="fill:#FFC2B0;" d="M37.4,36c0.2,1.7-0.8,3.2-2,3.2h-0.4c-1.3-0.4-2.1-1.6-2.1-2.9
			c-0.2-1.7,0.8-3.2,2-3.2S37.2,34.2,37.4,36z"/>
	</g>
	<path id="Path_576" style="fill:#283D75;" d="M9937.1,1680.4l-0.4-0.2c-1.3-0.7-2.7,0.3-3.2,2.3l-6.6,24.5l-39.1-22.3l6.6-24.5
		c0.5-2-0.1-4.2-1.3-4.8l-0.4-0.2c-1.3-0.7-2.7,0.3-3.2,2.3l-7.1,26.5l0,0l-0.7,2.6l0,0l-8.5,31.7l0,0l-0.5,1.9l-8.7,32.4l0,0v0.2
		l-9.4,35.4l-0.4,1.4l0,0l-8.5,31.7l0,0l-0.7,2.6l0,0l-8.9,33.2c-0.5,2,0.1,4.2,1.3,4.8l0.4,0.2c1.3,0.7,2.7-0.3,3.2-2.3l8.3-31.2
		l39.1,22.3l-8.3,31.2c-0.5,2,0.1,4.2,1.3,4.8l0.4,0.2c1.3,0.7,2.7-0.3,3.2-2.3l53.3-199.5
		C9938.9,1683.3,9938.3,1681.1,9937.1,1680.4z M9925.2,1713.5l-7.4,27.7l-39.1-22.3l7.4-27.7L9925.2,1713.5z M9908.6,1775.5
		l-39.1-22.3l7.4-27.7l39.1,22.3L9908.6,1775.5z M9899.4,1809.8l-39.1-22.3l7.4-27.7l39.1,22.3L9899.4,1809.8z M9851.2,1821.9
		l7.4-27.7l39.1,22.3l-7.4,27.7L9851.2,1821.9z"/>
	<g id="Group_1791" transform="translate(9538.088 1518.886)">
		
			<ellipse id="Ellipse_31" transform="matrix(8.602530e-02 -0.9963 0.9963 8.602530e-02 -143.26 187.3625)" style="opacity:0.4;fill:#A8C4E5;enable-background:new    ;" cx="30.5" cy="171.8" rx="12.2" ry="20.5"/>
		<g id="Group_1790" transform="translate(0 0)">
			<path id="Path_577" style="fill:#2C4482;" d="M11.9,24.1c0.6-1.4,0-2.9-1.4-3.5c0,0-0.1,0-0.1,0c-1.7-0.6-3.9-0.7-4.9,2.3
				c-1.1,3.3-3.6,9.7-5.4,13.9c-0.3,0.7,0.1,1.6,0.8,1.9c0.5,0.2,1.1,0.1,1.5-0.3c1.1-1,1.8-2.4,2.1-3.9c0,0-1,2.7-2,5
				c-0.3,0.7,0,1.6,0.7,1.9c0.4,0.2,0.8,0.2,1.1,0c2-0.8,4.4-2.5,4.4-5.7C8.9,31.5,10.7,26.8,11.9,24.1z"/>
			<path id="Path_578" style="fill:#21275E;" d="M14.3,24.7c-0.9,1.4-2.3,2-3.2,1.5s-0.8-2.1,0.1-3.6c0.9-1.4,2.3-2,3.2-1.5
				C15.3,21.7,15.2,23.3,14.3,24.7z"/>
			<path id="Path_579" style="fill:#FFC2B0;" d="M31.3,72.3c-0.5,0.3-1.1,0.5-1.7,0.6c-1.4,0.2-2.9-0.6-4.2-1.4
				c-0.1-0.1-0.3-0.2-0.4-0.3c-0.2-0.2-0.2-0.6-0.1-0.9c0.5-1.7,1.3-1.7,2.4-2.6c0.5-0.5,1-1,1.5-1.4c0.8-0.6,1.7-1.2,2.6-1.7l0,0
				c1.1-0.6,5.2-2.8,6,0.3c0.4,1,0.3,2.1-0.4,3c-0.6,0.9-1.4,1.7-2.3,2.3C33.8,71,32.6,71.7,31.3,72.3z"/>
			<path id="Path_580" style="fill:#FFC2B0;" d="M25.5,69.4c0.3-1,0.7-1.9,1.2-2.7c0.5-0.8,1.2-1.4,2-1.7c1.6-0.6,4.3-1.6,5.2-0.9
				c1.1,0.8,0,2.1-0.8,2.9c-1.6,1.6-3.6,2.8-5.7,3.5c-0.3,0.2-0.6,0.1-0.8-0.2c-0.1,0.2,0.6-0.3,0.5-0.1
				C26.7,71.4,25,70.5,25.5,69.4z"/>
			<path id="Path_581" style="fill:#D0E7F4;" d="M25.9,68.9l-1.9,2l3.7,4.4l2.2-2.3L25.9,68.9z"/>
			<path id="Path_582" style="fill:#2C4482;" d="M39.1,165.5l-8.6-6.6l-5-0.8c-1.7,6.5-0.9,5.7,1,7.4l7.5,4.7
				c3.9,1.9,5.2,2.1,7.5,1.1l0,0C42.9,169.8,41.5,167.8,39.1,165.5z"/>
			<path id="Path_583" style="fill:#2C4482;" d="M29.5,171.7l-8.6-6.6l-5-0.8c-1.7,6.5-0.9,5.7,1,7.4l7.5,4.7
				c3.9,1.9,5.2,2.1,7.5,1.1l0,0C33.2,176,31.9,174.1,29.5,171.7z"/>
			<g id="Group_1780" transform="translate(12.976 25.338)">
				<g id="Group_1779">
					<path id="Path_584" style="fill:#FFFFFF;" d="M1.8,25.5c3-2.9,8.3-4.1,12.3-4.1c0.6,0,1-0.5,1-1c0-0.6-0.5-1-1-1
						C9.5,19.3,3.7,20.6,0.3,24C-0.6,24.9,0.8,26.4,1.8,25.5L1.8,25.5z"/>
				</g>
			</g>
			<g id="Group_1781" transform="translate(31.231 26.116)">
				<path id="Path_585" style="fill:#FF5C97;" d="M0,23.3c0.8,11.1,2.3,22.1,4.8,33c1.2,5.2,9.2,3,8-2.2C10.5,44,9,33.8,8.3,23.4
					C7.9,18-0.4,18,0,23.3L0,23.3z"/>
			</g>
			<g id="Group_1782" transform="translate(24.751 67.975)">
				<path id="Path_586" style="fill:#FFC2B0;" d="M4.8,23.3C5.1,46,3.9,68.1,0.1,90.4c-0.9,5.2,7.1,7.5,8,2.2
					c3.8-22.9,5.4-46.1,4.9-69.3C13,18,4.7,18,4.8,23.3L4.8,23.3z"/>
			</g>
			<g id="Group_1783" transform="translate(15.304 74.425)">
				<path id="Path_587" style="fill:#FFC2B0;" d="M3.3,23.4C2,46,0,68.5,0,91.1c0,5.4,8.3,5.4,8.3,0c0.1-22.6,2-45.2,3.3-67.8
					C11.9,18,3.6,18,3.3,23.4L3.3,23.4z"/>
			</g>
			<path id="Path_588" style="fill:#FF5C97;" d="M10.5,100.4c0.8,11.6,8.3,12.8,15.9,8.5s11.7-14.2,11.7-23c0,0-4.2-12.9-11.7-8.5
				S9.6,86.8,10.5,100.4z"/>
			<path id="Path_589" style="fill:#FF5C97;" d="M36.2,52.2c0,0,5,7.9,4.4,12.5c-0.4,3-2.6,6.4-2.9,7.3c-2.6,7.9-1.1,10.3-1.4,12.5
				c0,0-1.7,7.5-20.2,0.4L8.4,62.1L36.2,52.2z"/>
			<path id="Path_590" style="fill:#FF5C97;" d="M9.7,67.1c-0.5-0.4-0.7-0.9-0.8-1.5c-0.5-4.1-2.7-5.9,1.7-12.9
				c0.7-1.1,10.4-6.1,17.7-7.5c3.5-0.6,7,1.3,8.5,4.6c0.7,1.9,1.2,3.8,1.7,5.7c0.4,7.5-2.9-2.3-3.5,1.8c0-0.1,0.1-0.2,0.1-0.3
				c0,0-0.9,7-1.6,12.4c-0.5,3.4-0.8,5.8-0.8,6.1v0.1l-12.8,9.9l-6.6-12l0,0L9.7,67.1z"/>
			<path id="Path_591" style="fill:#FFC2B0;" d="M27.8,45.1c0,0,6.3,6.5,0.8,11.1c-5.4,4.6-14.8-5.7-14.8-5.7
				C18.7,47.5,23.5,45.4,27.8,45.1z"/>
			<path id="Path_592" style="fill:#FF5C97;" d="M38.1,85.9l4.5,30.7c0,0.4-0.1,0.9-0.4,1.2c-1.7,2.3-10.4,8.2-29.4,4.9
				c-2.2-0.4-2.6-0.5-2.6-2l1.1-24.5l11.2-0.1L38.1,85.9z"/>
			<path id="Path_593" style="fill:#FFC2B0;" d="M25,48.9l3-11.6l-7.3,2.3l-2.4,9.5C17.7,50.6,22.8,54.8,25,48.9z"/>
			<g id="Group_1785" transform="translate(13.162 25.672)">
				<g id="Group_1784">
					<path id="Path_594" style="fill:#FFFFFF;" d="M14.9,20.4c0.2,2.7,2.8,7.3-0.2,9.1c-4.5,2.6-10-2.4-13-5.3
						c-1-0.9-2.4,0.5-1.4,1.4c3.7,3.6,9.1,8.2,14.7,6c5.6-2.3,2.3-6.9,2-11.3C16.9,19,14.8,19,14.9,20.4L14.9,20.4z"/>
				</g>
			</g>
			<path id="Path_595" style="fill:#FFC2B0;" d="M27.6,45.5l2.2-0.7c3.3-1,5.2-4.6,4.2-7.9l-3.4-11c-1-3.3-4.6-5.2-7.9-4.2l-2.2,0.7
				c-3.3,1-5.2,4.6-4.2,7.9l3.4,11C20.7,44.6,24.2,46.5,27.6,45.5C27.6,45.5,27.6,45.5,27.6,45.5z"/>
			<path id="Path_596" style="fill:#EA8A6C;" d="M26.2,45.7c-1.5,0.2-3,0-4.5-0.5c0,0,2,2.2,4.3,2.4L26.2,45.7z"/>
			<path id="Path_597" style="fill:#2C4482;" d="M23.1,25.3c0,0-1.9,9.2-4.5,12l0.8,1.7c0.8,1.7,0.9,3.6,0.2,5.4l-0.3,0.7
				c0,0-17.1-9.5-6.3-21.4c7.3-8.1,19.2-3.9,19.2,4.7L23.1,25.3z"/>
			<path id="Path_598" style="fill:#FFC2B0;" d="M18.6,42c0.7,0.4,1.7,0.1,2.1-0.6c0.1-0.3,0.2-0.5,0.2-0.8
				c-0.1-1.4-0.9-2.6-2.2-3.2C17.9,37,17,37.2,16.5,38c-0.1,0.3-0.2,0.5-0.2,0.8C16.4,40.2,17.3,41.4,18.6,42z"/>
			<g id="Group_1787" transform="translate(25.125 43.648)">
				<path id="Path_599" style="fill:#FFC2B0;" d="M23.4,45.7l-2.8,1.8c-1.4,0.9-2.9,0.8-3.6-0.2l-0.5-0.7c-0.6-1,0-2.4,1.4-3.3
					l2.8-1.8c1.4-0.9,2.9-0.8,3.5,0.2l0.5,0.7C25.4,43.3,24.8,44.8,23.4,45.7z"/>
				<g id="Group_1786">
					<path id="Path_600" style="fill:#A8C4E5;" d="M0,42.7v-0.7l0.9,0.3l0.2-0.5l21.8-12.6c0.3-0.2,0.7-0.1,1.1,0.1l9.4,5.4v-0.2
						l1.7,0.7v0.8l0,0c0,0.1-0.1,0.1-0.2,0.2L12.2,49.4c-0.3,0.2-0.7,0.1-1.1-0.1L0.3,43C0.1,43,0,42.8,0,42.7L0,42.7z"/>
					<path id="Path_601" style="fill:#E1EAF4;" d="M12.2,48.6L35,35.5c0.2-0.1,0.2-0.3,0.1-0.5c0-0.1-0.1-0.1-0.2-0.1L24,28.6
						c-0.3-0.2-0.7-0.2-1.1-0.1L0.2,41.7C0.1,41.8,0,42,0.1,42.1c0,0.1,0.1,0.1,0.2,0.1l10.9,6.3C11.5,48.8,11.9,48.8,12.2,48.6z"/>
					<path id="Path_602" style="fill:#A8C4E5;" d="M10.7,40.2l5.5-3.2c0.1,0,0.1-0.1,0-0.2l-2.6-1.5c0-0.1-0.1-0.1-0.2,0
						c0,0,0,0,0,0l-5.5,3.2c-0.1,0-0.1,0.1,0,0.2l2.6,1.5C10.5,40.2,10.6,40.2,10.7,40.2C10.6,40.2,10.6,40.2,10.7,40.2z"/>
					<path id="Path_603" style="fill:#FFFFFF;" d="M12.8,33.9c0.1-0.7,0.5-1.2,1.1-1.6l22.6-12.8c0.1-0.1,0.4-0.2,0.5-0.1l0,0
						c0.1,0,0.1,0.1,0.2,0.1l0.8,0.8l-0.7-0.1L35.1,34c-0.1,0.7-0.5,1.2-1.1,1.6L12.6,47.8l-0.7,0.8l-0.1,0.2
						c-0.5,0.1-1.4-0.6-1.4-0.6L12.8,33.9z"/>
					<path id="Path_604" style="fill:#2C4482;" d="M12.2,49.3l22.6-12.8c0.5-0.4,0.9-0.9,1.1-1.6L38,20.8c0.1-0.6-0.2-0.8-0.7-0.6
						L14.7,33.1c-0.5,0.4-0.9,0.9-1.1,1.6l-2.2,14.1C11.3,49.4,11.6,49.6,12.2,49.3z"/>
					<path id="Path_605" style="fill:#FFFFFF;" d="M24.2,35.7c-0.2,0.8,0.5,0.9,1.5,0.4c0.9-0.5,1.6-1.3,2-2.3
						c0.2-0.8-0.5-0.9-1.5-0.4C25.2,33.9,24.5,34.7,24.2,35.7z"/>
				</g>
			</g>
			<g id="Group_1788" transform="translate(1.48 34.874)">
				<path id="Path_606" style="fill:#FFC2B0;" d="M6.3,21c-2.3,5.4-5.4,10.9-6,16.8c-0.5,4.3-0.8,11.3,2.3,14.7
					c3,3.2,7.9,2.7,11.9,1.9c2.4-0.5,4.8-1.3,7.1-2c1.1-0.3,2-0.6,3.1-0.9c0.5-0.2,1.5-0.2,1.1-0.3c3.9,1,5.5-5,1.7-6
					c-2.9-0.8-6.2,0.8-8.8,1.7S10.7,50,8,48.7c-2.3-1.1-1.7-7.9-1.5-10.2c0.5-5,3.2-9.7,5.2-14.3C13.2,20.5,7.9,17.3,6.3,21L6.3,21z
					"/>
			</g>
			<g id="Group_1789" transform="translate(1.404 33.643)">
				<path id="Path_607" style="fill:#FF5C97;" d="M5.1,21.5C0.5,30.5,0,40.3,0,49.9c0,4.4,8.3,4.5,8.3,0.2C8.3,41,8.7,32,13,23.4
					C15,19.5,7,17.5,5.1,21.5L5.1,21.5z"/>
			</g>
			<path id="Path_608" style="fill:#FFC2B0;" d="M36.3,84.6l0.2-0.5c0.4-1.6-0.5-3.2-2-3.6c0,0-0.1,0-0.1,0l-4.5-1.2
				c-1.6-0.4-3.2,0.5-3.6,2c0,0,0,0.1,0,0.1l-0.2,0.5c-0.4,1.6,0.5,3.2,2,3.6c0,0,0.1,0,0.1,0l4.5,1.2
				C34.3,87.2,35.9,86.2,36.3,84.6z"/>
		</g>
	</g>
	<g id="Group_1792" transform="translate(9628.933 1477.393)">
		<path id="Path_609" style="fill:#2C4482;" d="M52,158.8L4.6,131.4c-2.6-1.5-4.7-5.6-4.6-9l2.4-99c0.1-3.5,2.3-5,4.9-3.5l47.4,27.3
			c2.6,1.5,4.7,5.6,4.6,9l-2.4,99C56.8,158.8,54.6,160.4,52,158.8z"/>
		<path id="Path_610" style="fill:#D84177;" d="M22.4,54.5l-10.2-5.9c-2.3-1.6-3.6-4.2-3.6-7l0,0c0.1-2.7,1.8-3.9,3.9-2.7l10.2,5.9
			c2.3,1.6,3.6,4.2,3.6,7l0,0C26.2,54.5,24.5,55.7,22.4,54.5z"/>
		<path id="Path_611" style="fill:#FFFFFF;" d="M36,79.5l-15.3-8.8c-1.8-1.3-2.9-3.4-2.9-5.6l0,0c0.1-2.1,1.4-3.1,3-2.2l15.3,8.8
			c1.8,1.3,2.9,3.4,2.9,5.6l0,0C39.1,79.5,37.7,80.5,36,79.5z"/>
		<path id="Path_612" style="fill:#A7D1E8;" d="M48.5,104.7L20.2,88.4c-1.8-1.3-2.9-3.4-2.9-5.6l0,0c0.1-2.1,1.4-3.1,3-2.2L48.7,97
			c1.8,1.3,2.9,3.4,2.9,5.6l0,0C51.4,104.7,50.1,105.7,48.5,104.7z"/>
		<path id="Path_613" style="fill:#FFFFFF;" d="M35.1,115l-15.3-8.8c-1.8-1.3-2.9-3.4-2.9-5.6l0,0c0.1-2.1,1.4-3.1,3-2.2l15.3,8.8
			c1.8,1.3,2.9,3.4,2.9,5.6l0,0C38.2,115,36.8,115.9,35.1,115z"/>
		<path id="Path_614" style="fill:#D84177;" d="M21.5,124.2l-10.5-6c-1.8-1.3-2.9-3.4-2.9-5.6l0,0c0.1-2.1,1.4-3.1,3-2.2l10.5,6
			c1.8,1.3,2.9,3.4,2.9,5.6l0,0C24.5,124.1,23.1,125.1,21.5,124.2z"/>
	</g>
	<g id="Group_1794" transform="translate(9482.685 1525.795)">
		<path id="Path_615" style="fill:#2C4482;" d="M17.9,65.3c-1.9,1-4.1,1-6,0c-1.7-1-1.7-2.6,0-3.5c1.9-1,4.1-1,6,0
			C19.6,62.7,19.6,64.3,17.9,65.3z"/>
		<path id="Path_616" style="fill:#4367C7;" d="M21,60.9L8.8,61V48.1H21V60.9z"/>
		<path id="Path_617" style="fill:#4367C7;" d="M19.2,63.5c-2.7,1.4-5.9,1.4-8.6,0c-2.4-1.4-2.4-3.6,0-5c2.7-1.4,5.9-1.4,8.6,0
			C21.6,59.8,21.6,62.1,19.2,63.5z"/>
		<path id="Path_618" style="fill:#2C4482;" d="M21,51.6c-0.1-0.1-0.2-0.1-0.3-0.2c-3.7-1.9-8-1.9-11.7,0c-0.1,0.1-0.2,0.1-0.2,0.2
			v6.5c0.1,0.1,0.2,0.1,0.2,0.2c3.7,1.9,8,1.9,11.7,0c0.1-0.1,0.2-0.1,0.2-0.2L21,51.6L21,51.6z"/>
		<path id="Path_619" style="fill:#4367C7;" d="M20.8,57c-3.7,1.9-8,1.9-11.7,0c-3.2-1.9-3.2-4.9,0-6.8c3.7-1.9,8-1.9,11.7,0
			C24,52.1,23.9,55.1,20.8,57z"/>
		<rect id="Rectangle_1039" x="6.6" y="50.7" style="fill:#4367C7;" width="16.6" height="3"/>
		<path id="Path_620" style="fill:#FFFFFF;" d="M20.8,54.1c-3.7,1.9-8,1.9-11.7,0c-3.2-1.9-3.2-4.9,0-6.8c3.7-1.9,8-1.9,11.7,0
			C24,49.2,23.9,52.2,20.8,54.1z"/>
		<g id="Group_1793" transform="translate(0 0)">
			<path id="Path_621" style="fill:#FFE47C;" d="M29.8,33c0-7.6-6.6-13.7-14.9-13.7S0,25.5,0,33c0,4.1,1.9,7.9,5.1,10.3
				c1.5,1.7,2.5,3.8,2.9,6c0.4,1.6,1.5,3,3.1,3.6c2.4,0.9,5,1,7.4,0.1c1.5-0.6,2.6-1.9,2.9-3.5c0.4-2.2,1.4-4.2,2.9-5.8l0.2-0.2
				C27.8,41,29.7,37.2,29.8,33z"/>
		</g>
		<path id="Path_622" style="opacity:0.51;fill:#FFFFFF;enable-background:new    ;" d="M11.8,29.8c0,2.7-1.6,5.1-4.2,6.1
			c-2.3,0.7-4.2-0.9-4.2-3.6c0-2.7,1.6-5.1,4.2-6.1C10,25.5,11.8,27.1,11.8,29.8z"/>
	</g>
	<g id="Group_1798" transform="translate(9627.852 1629.514)">
		<path id="Path_623" style="opacity:0.4;fill:#A8C4E5;enable-background:new    ;" d="M1.3,89.8L96.9,145c1.9,1.1,5.2,1,7.4-0.3
			l22-12.7c2.2-1.3,2.4-3.2,0.5-4.3L31.2,72.5c-1.9-1.1-5.2-1-7.4,0.3l-22,12.7C-0.4,86.8-0.7,88.8,1.3,89.8z"/>
		<path id="Path_624" style="fill:#5986FF;" d="M1.3,82.8L96.9,138c1.9,1.1,5.2,1,7.4-0.3l22-12.7c2.2-1.3,2.4-3.2,0.5-4.3
			L31.2,65.5c-1.9-1.1-5.2-1-7.4,0.3l-22,12.7C-0.4,79.8-0.7,81.7,1.3,82.8z"/>
		<path id="Path_625" style="fill:#EBD265;" d="M27.1,50.4L8.5,39.6L27,28.9l18.6,10.7L27.1,50.4z"/>
		<path id="Path_626" style="fill:#DEA749;" d="M27.1,89.8L8.5,79.1V39.6l18.6,10.7V89.8z"/>
		<path id="Path_627" style="fill:#324D94;" d="M27,89.8l19-10.7V39.6L27,50.3V89.8z"/>
		<path id="Path_628" style="fill:#FF619A;" d="M51.9,40.8L33.1,30.1l18.7-10.7l18.6,10.7L51.9,40.8z"/>
		<path id="Path_629" style="fill:#EF487C;" d="M33.3,30.1v63l18.6,10.7v-63L33.3,30.1z"/>
		<path id="Path_630" style="fill:#324D94;" d="M51.9,40.8l-0.1,63l18.7-10.7v-63L51.9,40.8z"/>
		<path id="Path_631" style="fill:#50DEC6;" d="M75.5,79.1L57.1,68.3l18.4-10.7l18.6,10.7L75.5,79.1z"/>
		<path id="Path_632" style="fill:#45BFAB;" d="M75.6,118.5l-18.4-10.7V68.4l18.4,10.7L75.6,118.5z"/>
		<path id="Path_633" style="fill:#324D94;" d="M75.6,118.5L94,107.8V68.4L75.6,79.1V118.5z"/>
		<path id="Path_634" style="fill:#FFFFFF;" d="M100.4,108.8L81.8,98.1l18.5-10.7l18.6,10.7L100.4,108.8z"/>
		<path id="Path_635" style="fill:#324D94;" d="M100.1,133.9l19-11.3V98.1l-19,10.7V133.9z"/>
		<g id="Group_1797" transform="translate(81.912 78.714)">
			<g id="Group_1796">
				<g id="Group_1795">
					<path id="Path_636" style="fill:#DBEFFF;" d="M18.6,55.2V30.1L0,19.3v25.1L18.6,55.2z"/>
				</g>
			</g>
		</g>
	</g>
	<g id="Group_1803" transform="translate(9927.942 1731.058)">
		<g id="Group_1799" transform="translate(18.386 26.023)">
			<path id="Path_637" style="fill:#FFC2B0;" d="M2.4,21.4C1.6,25.9-4.7,52,7.1,50.3c3.3-0.5,6.1-3.5,8.2-6c2.8-3.4,5.2-7,7.3-10.9
				c1.8-3.2-3.2-6.1-5-2.9c-1.6,2.9-3.4,5.8-5.4,8.5c-1,1.3-2.1,2.6-3.2,3.7c-0.7,0.7-1.5,1.3-2.3,1.8c-0.8,0.5,0.1,0,0.1,0.2
				c0,0.1,0.1,0.5-0.1-0.2c-0.1-0.5,0.1,0.2-0.2-0.4c-0.2-0.7-0.3-1.3-0.4-2c-0.7-6.3,0.8-13.1,2-19.4C8.6,19.4,3.1,17.8,2.4,21.4
				L2.4,21.4z"/>
		</g>
		<path id="Path_638" style="fill:#8585FF;" d="M12.8,34.7c0.5,2.3,0,4.2-1.2,4.5c-1.1,0.2-2.5-1.4-2.9-3.5c-0.5-2.3,0-4.2,1.2-4.5
			C11,30.8,12.4,32.4,12.8,34.7z"/>
		<path id="Path_639" style="fill:#36475C;" d="M22.6,53.1l0.3,0.1c1.6,0.6,3.4-0.3,4-1.9l5-14.1c0.6-1.6-0.3-3.4-1.9-4l-0.3-0.1
			c-1.6-0.6-3.4,0.3-4,1.9l-5,14.1c-0.6,1.6,0.2,3.3,1.7,3.9C22.5,53.1,22.5,53.1,22.6,53.1z"/>
		<path id="Path_640" style="fill:#FFC2B0;" d="M20.2,49.8L20.2,49.8c2.1,0.6,4.2-0.5,4.9-2.6l1.6-5.1c0.6-2-0.5-4.2-2.6-4.8H24
			c-2-0.6-4.2,0.5-4.8,2.6l-1.6,5.1C17,47,18.1,49.1,20.2,49.8z"/>
		<path id="Path_641" style="fill:#FFC2B0;" d="M27.9,46.4l1,0.3c0.8,0.2,1.6-0.2,1.8-1l0.4-1.1c0.2-0.8-0.2-1.6-1-1.8l-1-0.3
			c-0.8-0.2-1.6,0.2-1.8,1L27,44.6C26.8,45.4,27.2,46.2,27.9,46.4z"/>
		<path id="Path_642" style="fill:#D84177;" d="M29.9,31c0.2-0.1,4.8-0.8,5-0.8c0.7-0.2,1.5,0,2,0.6c1.4,1.4,2.1,3.4,1.8,5.4
			c-0.2,1.1-0.8,1.7-1.7,1.7c-0.2,0.1-4.8,0.8-5,0.8c-0.7,0.2-1.5,0-2-0.6c-1.4-1.4-2.1-3.4-1.8-5.4C28.5,31.6,29.1,31,29.9,31z"/>
		<path id="Path_643" style="fill:#D84177;" d="M23.7,30.5c0.2-0.1,7.1-1.3,7.4-1.3c1-0.3,2.1,0,2.9,0.8c2.1,2.1,3,5,2.6,7.9
			c-0.4,1.7-1.3,2.5-2.4,2.5c-0.2,0.1-7.1,1.3-7.4,1.3c-1,0.3-2.1,0-2.9-0.8c-2.1-2.1-3-5-2.6-7.9C21.6,31.3,22.6,30.5,23.7,30.5z"
			/>
		<path id="Path_644" style="fill:#DCF1FF;" d="M23.7,30.4L6.5,26.5l5.1,25.8l17.1-11.2C29.6,36.2,27.7,30.6,23.7,30.4z"/>
		<path id="Path_645" style="fill:#D0E7F4;" d="M8.5,36.9l3.1,13.9c0,0,17.3-10.4,17.3-10.8c0.2-1.9-0.1-3.8-0.7-5.6L8.5,36.9z"/>
		<path id="Path_646" style="fill:#D84177;" d="M2.9,30.8c-2,5.7-0.5,14.1,3.5,18.7s8.8,3.7,10.7-2c2-5.7,0.5-14.1-3.5-18.7
			S4.9,25.1,2.9,30.8z"/>
		<path id="Path_647" style="fill:#D84177;" d="M0.9,31.3c-2,5.7-0.5,14.1,3.5,18.7s8.8,3.7,10.7-2c2-5.7,0.5-14.1-3.5-18.7
			S2.9,25.6,0.9,31.3z"/>
		<path id="Path_648" style="fill:#FFFFFF;" d="M2.3,31.6c-1.9,5.3-0.5,13,3.2,17.3c3.6,4.2,8.1,3.4,10-1.9s0.5-13-3.2-17.3
			C8.6,25.5,4.1,26.3,2.3,31.6z"/>
		<path id="Path_649" style="fill:#DCF1FF;" d="M15.6,36.5c-0.6-2.5-1.8-4.8-3.4-6.7c-3.6-4.2-8.1-3.4-10,1.9
			c-0.5,1.5-1,3.2-0.8,7.3C5.3,33.4,10.9,33.8,15.6,36.5z"/>
		<path id="Path_650" style="fill:#D0E7F4;" d="M15.8,43c0.8-2.3,0.5-5.7-1.2-7.6c-0.8-0.9-2-1.4-2-1.2H8.6c-0.2,0-0.4-0.4-0.5-0.4
			H8.1v0.7c-0.9,0.3-1.5,1.1-1.7,2c-0.8,2.3,0.2,5.7,2,7.7c0.7,0.8,1.7,1.3,2.8,1.3H11l2.7-0.3c0.2,0,0.4,0.1,0.6,0.1h-0.2V45
			C14.9,44.5,15.5,43.8,15.8,43z"/>
		<path id="Path_651" style="fill:#5986FF;" d="M14,32.3l-5.1,0.8c-0.1,0-0.2-0.1-0.3-0.1H7.9v0.5c-0.8,0.2-1.1,0.8-1.4,1.9
			c-0.8,2.3,0.2,5.7,1.7,7.5c0.7,0.8,1.7,1.2,2.7,1.1h-0.2c0.1,0,0.1,0,0.2-0.1c0,0,5.2-1.1,5.4-1.1C16.5,39.1,15.6,35.5,14,32.3z"
			/>
		<path id="Path_652" style="fill:#FFFFFF;" d="M24.8,31.2l-10.5-2.3l2.2,3.4l9.1,0.6L24.8,31.2z"/>
		<path id="Path_653" style="opacity:0.43;fill:#FFFFFF;enable-background:new    ;" d="M33.8,31.1l-6.2,1.2L26.6,31l6.3-1.1
			L33.8,31.1z"/>
		<path id="Path_654" style="fill:#2C4482;" d="M35.5,168.4l8.7-6.6l5.1-0.8c1.7,6.6,0.9,5.8-1,7.5l-7.6,4.8c-4,1.9-5.3,2.1-7.6,1.1
			l0,0C31.7,172.7,33.1,170.8,35.5,168.4z"/>
		<path id="Path_655" style="fill:#2C4482;" d="M67.7,178.9l6.6-8.7L79,168c3.4,6,2.4,5.4,1,7.5l-6,6.6c-3.3,2.9-4.5,3.5-7,3.1l0,0
			C65.2,184.1,65.9,181.9,67.7,178.9z"/>
		<path id="Path_656" style="fill:#27E0C0;" d="M40.6,43.7l-8.2,14.1c-1.4,4.5,8.8,8,10.2,4.5L49.3,48c1-2.3,0-5-2.3-6.1l0,0
			C44.8,40.6,41.9,41.5,40.6,43.7C40.6,43.7,40.6,43.7,40.6,43.7z"/>
		<g id="Group_1800" transform="translate(59.236 76.318)">
			<path id="Path_657" style="fill:#4264BF;" d="M9.8,24.2c1.3,2,1.9,4.5,1.6,6.9c-1.3,11-0.3,20.2,2.5,31.3
				c2.4,9.4,6.3,19,7.7,28.6c0.9,5.7-8,7.2-8.9,1.4c-0.7-3.9-1.7-7.8-3-11.6c-1.7-6-3.5-11.9-5-17.9c-3.2-12.8-6-26.6-4-39.8
				c0.8-5.7,9.8-4.8,8.9,1L9.8,24.2z"/>
		</g>
		<g id="Group_1801" transform="translate(38.069 74.618)">
			<path id="Path_658" style="fill:#4264BF;" d="M13.4,24.9c-1.8,7.3-3,14.7-3.6,22.1c-0.6,4.3-0.8,8.7-0.6,13
				c0.9,8.8,2.5,17.8,2.4,26.7c0,5.8-9,5.8-9,0C2.7,77.7,1,68.5,0.1,59.5c-0.5-4.7,0.3-9.4,0.8-14.1C1.5,37.7,2.8,30,4.7,22.5
				C6.3,16.9,15,19.3,13.4,24.9L13.4,24.9z"/>
		</g>
		<path id="Path_659" style="fill:#4264BF;" d="M49.4,111.4L49.4,111.4c0.8,0.9-2.7-3.6-1.7-2.9c2.2,1.4,14.7,9.8,17.3,9.9
			c3.2,0.1,1.3-2.9,3.6-5.1c2.2-2,2.7-5.2,2.9-8.2c0.1-0.8,0-1.6-0.2-2.4c-0.4-0.8-1.1-1.5-1.8-2C64,96.5,53.1,86.2,45.4,89.5
			C36.5,93.3,45.4,107,49.4,111.4z"/>
		<path id="Path_660" style="fill:#27E0C0;" d="M43.6,44.9c-1.7,2.1-1.4,3.4-1.4,6.3c0.1,2.8,2,5.3,4.7,6l27.8,7.8
			c0,0,8-7.7,2.5-10.9c-2.9-1.7-13.9-7.6-17.5-9.7C54.4,41.3,47.3,40.1,43.6,44.9z"/>
		<path id="Path_661" style="fill:#27E0C0;" d="M41.4,95.2c0.8,1.1,1.9-28.9,0.2-47.9l31.3,14.9c-0.2,14.3,0.2,32-0.8,43.6
			C68,113.6,54.2,103.6,41.4,95.2z"/>
		<path id="Path_662" style="fill:#FFC2B0;" d="M55.7,47.8L52.6,36l8.1,2.3l2.6,9.6C63.8,49.5,58.1,53.9,55.7,47.8z"/>
		<path id="Path_663" style="fill:#EA8A6C;" d="M55.1,45.5c0,0,3.3-1.7,3.3-1.7c-0.6,1.3-1.6,2.5-2.8,3.3L55.1,45.5z"/>
		<path id="Path_664" style="fill:#FFC2B0;" d="M53.2,45.3L51,44.9c-3.5-0.6-5.8-4-5.2-7.5l2-11.5c0.6-3.5,4-5.8,7.5-5.2l2.3,0.4
			c3.5,0.6,5.8,4,5.2,7.5l-2,11.5C60.1,43.6,56.7,45.9,53.2,45.3z"/>
		<path id="Path_665" style="fill:#715255;" d="M56.3,29.8c-2.7,0.8-5.6,0.4-8-1c-2.6-1.7-3.7-6-1.1-7.6c1.4-0.8,4.7-1.2,7.5-1.7
			c7.9-1.4,14.9,4,13.4,12.3c0,0-1.4,9.3-6.7,11.3c-0.8,0.3-1.6-0.1-1.9-0.9c-0.1-0.2-0.1-0.3-0.1-0.5l0,0c0,0,3.1-2.9-0.5-6.2
			c-0.8-0.8-0.8-2.1-0.4-3.5c0.3-1-0.3-2-1.3-2.3C57,29.8,56.7,29.7,56.3,29.8z"/>
		<path id="Path_666" style="fill:#FFC2B0;" d="M61.9,40.6c-0.7,0.5-1.6,0.3-2.1-0.4c-0.2-0.2-0.3-0.5-0.3-0.8
			c-0.1-1.4,0.7-2.8,1.9-3.5c0.7-0.5,1.6-0.3,2.1,0.4c0.2,0.2,0.3,0.5,0.3,0.8C63.9,38.6,63.2,39.9,61.9,40.6z"/>
		<g id="Group_1802" transform="translate(72.941 40.759)">
			<path id="Path_667" style="fill:#FFC2B0;" d="M0.2,22.9c1.7,5.4,5.7,9.7,7.8,15.1c3.8,10,1.9,20.5-2.6,30
				c-1.6,3.4,3.5,6.3,5.1,2.9c4.8-10.2,7.3-21.4,3.9-32.4c-1.2-3.6-2.8-7.1-4.7-10.3c-1.3-2.2-3-4.4-3.8-6.8
				C4.6,17.8-1,19.4,0.2,22.9L0.2,22.9z"/>
		</g>
		<path id="Path_668" style="fill:#27E0C0;" d="M70.7,60.3l4.4,15.8c2.3,4.2,11.9-0.7,10.3-4.2l-5.5-14.7c-1-2.3-3.6-3.5-6-2.7l0,0
			C71.4,55.2,70,57.8,70.7,60.3z"/>
	</g>
	<g id="Group_1814" transform="translate(9731.939 1733.381)">
		<g id="Group_1806" transform="translate(52.535 43.892)">
			<path id="Path_669" style="fill:#4367C7;" d="M9.1,33.2c-2.4,1.2-5.2,1.2-7.6,0c-2.1-1.2-2.1-3.2,0-4.4c2.4-1.2,5.2-1.2,7.6,0
				C11.2,30.1,11.2,32,9.1,33.2z"/>
			<rect id="Rectangle_1040" x="0" y="22.4" style="fill:#4367C7;" width="10.7" height="8.5"/>
			<path id="Path_670" style="fill:#4367C7;" d="M7.6,22.4v8.5l0,0c-0.1,1-0.7,1.8-1.6,2.2c-0.7,0.4-1.4,0.6-2.2,0.8
				c1.8,0.3,3.7,0.1,5.4-0.8c0.9-0.4,1.5-1.2,1.6-2.2l0,0v-8.5H7.6z"/>
			<path id="Path_671" style="fill:#E9E9FF;" d="M9.1,24.6c-2.4,1.2-5.2,1.2-7.6,0c-2.1-1.2-2.1-3.2,0-4.4C4,19,6.8,19,9.1,20.3
				C11.2,21.5,11.2,23.4,9.1,24.6z"/>
			<path id="Path_672" style="fill:#A1A1E5;" d="M8.5,24.2c-2,1-4.3,1-6.3,0c-1.7-1-1.7-2.6,0-3.6c2-1,4.3-1,6.3,0
				C10.2,21.6,10.2,23.2,8.5,24.2z"/>
			<path id="Path_673" style="fill:#565682;" d="M8.5,22.1c-2-1-4.3-1-6.3,0c-0.4,0.2-0.8,0.6-1.1,1c0.3,0.4,0.6,0.8,1.1,1.1
				c2,1,4.3,1,6.3,0c0.4-0.2,0.8-0.6,1.1-1C9.3,22.7,8.9,22.4,8.5,22.1z"/>
			<path id="Path_674" style="fill:#6B6B9B;" d="M2.3,24.2c-0.4-0.2-0.8-0.6-1.1-1c0.1-0.2,0.3-0.4,0.5-0.6c1.5-0.3,3-0.1,4.3,0.6
				c0.4,0.2,0.8,0.6,1.1,1c0.1,0.1,0.1,0.3,0.2,0.5c-0.2,0.1-0.5,0.1-0.7,0.2C5.1,25.1,3.6,24.9,2.3,24.2z"/>
			<g id="Group_1805" transform="translate(8.327 5.836)">
				<g id="Group_1804">
					<path id="Path_675" style="fill:#45446C;" d="M0.4,20.5c0.6,0.3,1.5,0.6,1.7,1.4c0.1,0.7,0.1,1.4,0.1,2.1v1.4
						c0.2,0.3,0.2,0.4,0,0.2c-0.4-0.1-0.8-0.3-1.1-0.5c-0.4-0.1-0.8,0-0.9,0.4c-0.1,0.3,0,0.6,0.2,0.8c0.6,0.3,1.4,0.9,2,0.8
						c1-0.1,1.1-1.1,1.1-1.9c0.1-1.3,0.1-2.5-0.1-3.8c-0.2-1.1-1.5-1.5-2.3-2C0.3,18.9-0.5,20.2,0.4,20.5L0.4,20.5z"/>
				</g>
			</g>
		</g>
		
			<ellipse id="Ellipse_32" transform="matrix(5.427895e-03 -1 1 5.427895e-03 -141.2414 198.404)" style="opacity:0.4;fill:#A8C4E5;enable-background:new    ;" cx="29.1" cy="170.2" rx="13.4" ry="23.2"/>
		
			<ellipse id="Ellipse_33" transform="matrix(5.427895e-03 -1 1 5.427895e-03 78.776 421.011)" style="opacity:0.4;fill:#A8C4E5;enable-background:new    ;" cx="251" cy="170.9" rx="13.4" ry="23.2"/>
		<path id="Path_676" style="fill:#283D75;" d="M16.8,156.6l-5.3,6.6l-0.8,4.4c1.1,2.2,2,3.2,4,3.4c1.7,0.1,3.5-2.2,4.4-3.6l2.9-6.8
			c2.3-4.8,0.9-6.2-0.4-7.3l0,0C20.1,152.3,18.5,153.9,16.8,156.6z"/>
		<path id="Path_677" style="fill:#283D75;" d="M39.9,166.7l-9.9,2.1l-1.3,3.5c-0.3,2.5-0.2,3.8,1.4,5.1c1.4,1.1,4.2,0.2,5.7-0.5
			l6.3-3.9c4.7-2.6,4.3-4.6,3.8-6.2l0,0C45.1,165.1,42.9,165.5,39.9,166.7z"/>
		<g id="Group_1807" transform="translate(0 28.423)">
			<path id="Path_678" style="fill:#FFC2B0;" d="M10.3,20.6c-5.4,8.2-7.8,18.7-9.9,28.1c-0.5,1.7-0.5,3.6-0.1,5.3
				c1.8,6.6,3.9,12.8,4.6,19.8c0.4,3.5,5.9,3.6,5.5,0c-0.7-6.4-2-12.8-4-19c-0.4-1.1-0.8-2.3-1.3-3.5c0.4,1.1-0.2,1.8,0.1,0.9
				c0.2-0.6,0.2-1.1,0.4-1.7c2-9.1,4.2-19.3,9.4-27.1C17,20.4,12.2,17.7,10.3,20.6L10.3,20.6z"/>
		</g>
		<path id="Path_679" style="fill:#283D75;" d="M9.2,49.9c-3.5,4.8-6,14.4-8.6,21.6c-0.9,2-0.5,4,0.8,4.3l4.5,1.8
			c1.1,0.2,3.3-1.7,3.9-3.3l6.6-18.4c1.1-3,0.5-6-1.3-6.9l0.1-1.7C15.1,46.2,11.8,46.5,9.2,49.9z"/>
		<path id="Path_680" style="fill:#FFFFFF;" d="M16.2,86.6c-0.1,2.3-1.3,4.4-3.2,5.6c-1.8,1.1-3.2,0.2-3.2-1.9
			C9.8,88,11,85.9,13,84.7C14.8,83.7,16.2,84.5,16.2,86.6z"/>
		<path id="Path_681" style="opacity:0.46;fill:#FFFFFF;enable-background:new    ;" d="M33.5,31.1l0.1,1.1c0,0,0.2,3.2-2.9,1.5
			s-3-5.6-3-5.6S29.9,27.9,33.5,31.1z"/>
		<path id="Path_682" style="fill:#513554;" d="M30.6,33.8c4,2.1,3.9-1.6,3.9-1.6l0,0l-0.2-1.3c-4.5-3.9-7.4-3.7-7.4-3.7
			C26.8,29.9,28.2,32.5,30.6,33.8z M27.8,28.3c0,0,2.3-0.2,5.7,2.9V32c0,0,0.1,2.7-2.9,1.1C28.8,32.2,27.7,30.3,27.8,28.3L27.8,28.3
			z"/>
		<path id="Path_683" style="fill:#513554;" d="M36,32.9l-2.4-1.1l-0.2-1.4l2.4,1.1L36,32.9z"/>
		<path id="Path_684" style="fill:#513554;" d="M27.2,28.3l-0.5-0.2c-0.3-0.2-0.4-0.4-0.5-0.8l0,0c0-0.3,0.2-0.5,0.4-0.3l0.5,0.2
			c0.3,0.2,0.4,0.4,0.5,0.8l0,0c0,0.1-0.1,0.3-0.3,0.2C27.3,28.4,27.3,28.4,27.2,28.3z"/>
		<path id="Path_685" style="fill:#FCFEFF;" d="M28.2,29.9L28.2,29.9c-0.1-0.2-0.2-0.3-0.1-0.3l0.8-0.8c0.1-0.1,0.2,0,0.3,0.1l0,0
			c0.1,0.2,0.2,0.3,0.1,0.3L28.5,30C28.4,30.1,28.3,30.1,28.2,29.9C28.2,30,28.2,29.9,28.2,29.9z"/>
		<g id="Group_1810" transform="translate(27.047 86.715)">
			<g id="Group_1809">
				<g id="Group_1808">
					<path id="Path_686" style="fill:#2C4482;" d="M0.3,24.6C4,35.4,4.3,46.9,4,58.3c-0.2,8.4-1.6,16.9-1.4,25.3
						c0.2,5.5,8.8,5.5,8.6,0c-0.2-8.6,1.1-17.4,1.4-26c0.3-11.8-0.2-24-4-35.3C6.8,17.1-1.6,19.4,0.3,24.6L0.3,24.6z"/>
				</g>
			</g>
		</g>
		<g id="Group_1812" transform="translate(9.839 76.937)">
			<g id="Group_1811">
				<path id="Path_687" style="fill:#2C4482;" d="M0.2,24.7c1.8,7,3,14.2,3.5,21.5c0.4,4.2,0.9,8.3,0.5,12.5
					C3.2,67.2,1.6,76,1.7,84.6c0.1,5.5,8.6,5.5,8.6,0c-0.1-8.8,1.6-17.6,2.5-26.3c0.5-4.4-0.2-8.6-0.6-13
					c-0.6-7.7-1.8-15.4-3.7-22.9C7,17-1.3,19.3,0.2,24.7L0.2,24.7z"/>
			</g>
		</g>
		<path id="Path_688" style="fill:#2C4482;" d="M17,112.9L17,112.9c0.8,0.9-2.6-3.4-1.6-2.8c2.1,1.3,14.1,9.4,16.5,9.4
			c3,0.1,1.3-2.9,3.5-4.8c2.1-1.9,2.6-5,2.8-7.9c0.1-0.8,0-1.6-0.2-2.3c-0.4-0.8-1-1.4-1.7-1.8C31,98.7,20.6,88.8,13.2,92
			C4.7,95.6,13.2,108.7,17,112.9z"/>
		<path id="Path_689" style="fill:#4367C7;" d="M10.8,49.5c-1.6,2-1.4,3.2-1.3,6c0.1,2.7,1.9,5.1,4.5,5.7l26.5,7.5
			c0,0,1.5-10.2-3.7-13.3c-2.8-1.7-7.2-4.3-10.7-6.4C21.2,46,14.5,44.8,10.8,49.5z"/>
		<path id="Path_690" style="fill:#FFC2B0;" d="M22.9,49.2l2.3-10l6.1,4.1l-1.8,9.1C29.3,53.9,22.5,52.6,22.9,49.2z"/>
		<path id="Path_691" style="fill:#FFC2B0;" d="M26.7,24.6c0,0-6.1-4.2-6.2,6.1c0,6.9,4,13.3,10.3,16.2c3.7,1.7,8.2-0.5,8.4-4.1
			c0.9-5.2,0.9-10.1-0.8-14.4c0.2-4.3-2.7-2.8-7.9-3.1L26.7,24.6z"/>
		<path id="Path_692" style="fill:#283D75;" d="M23.1,44.7c0,0-7.1-2.6-6.4-12.6c0.8-10.8,10.7-9.8,16.2-10.3
			c2.4-0.2,4.2-0.6,6.6,1.7c2.3,2,0.2,6.6-3.1,6.9c-1.3,0.2-0.7,3.6-1,4.8c-0.5,2.1-1.8,3.2-2.3,5.2c-0.5,2-3.3,5-5.2,5.2
			C24.7,45.8,23.1,44.7,23.1,44.7z"/>
		<path id="Path_693" style="fill:#4367C7;" d="M9.5,97.5c-1.7-0.7-1.3-29.7,0.2-45.8l29.9,14.2c-0.2,13.7-1.9,24.5-0.2,41.1
			L9.5,97.5z"/>
		<path id="Path_694" style="fill:#4367C7;" d="M29.3,110c-7.4-2.7-14.4-5.7-18.6-10.7c-2-1.2-1.7-3.2,0.6-4.6l0,0
			c2.3-1.4,5.9-1.5,7.9-0.3l18.6,10.7c2,1.2,1.7,3.2-0.6,4.6l0,0C34.9,111.1,31.4,111.2,29.3,110z"/>
		<path id="Path_695" style="fill:#4367C7;" d="M39.5,66l-4.9-2.3c-0.2,13.3-1.8,24-0.2,40.3h-0.1c-0.1,1.2-0.9,2.2-2,2.6l0,0
			c-2.3,1.4-5.9,1.5-7.9,0.3c-3.5-1.2-6.8-2.6-10.1-4.2c4.1,3.1,9.4,5.3,15,7.3c2,1.2,5.6,1.1,7.9-0.3l0,0c1.1-0.5,1.8-1.5,2-2.6
			h0.1C37.7,90.4,39.4,79.6,39.5,66z"/>
		<path id="Path_696" style="fill:#FFFFFF;" d="M33.4,53.4c-6.9-1.1-11.5,3.2-13.1-6.6l0,0c1-0.6,2.3-0.3,2.9,0.7
			c1.5,1.9,4,2.9,6.4,2.4c0.8-0.1,1.6,0.3,2.1,1L33.4,53.4z"/>
		<g id="Group_1813" transform="translate(34.544 40.322)">
			<path id="Path_697" style="fill:#FFC2B0;" d="M0,22c0.5,5.7,1.4,11,3.8,16.2C5.5,42,7.3,47.3,11,49.7c8.4,5.4,17.4-8.4,21.3-13.6
				c2.1-2.9-2.6-5.6-4.8-2.8c-2.3,2.9-10.6,15.9-14.8,10.3c-4.5-6-6.6-14.4-7.2-21.7C5.2,18.5-0.3,18.5,0,22L0,22z"/>
		</g>
		<path id="Path_698" style="fill:#FFC2B0;" d="M34.9,38.2c0.2,1.7-0.8,3.2-2,3.2h-0.4c-1.3-0.4-2.1-1.6-2.1-2.9
			c-0.2-1.7,0.8-3.2,2-3.2S34.7,36.4,34.9,38.2z"/>
		<path id="Path_699" style="fill:#4367C7;" d="M31.8,62.2l3.6,14.7c2,3.9,11-0.2,9.7-3.6l-4.6-13.7c-0.9-2.2-3.2-3.3-5.4-2.6l0,0
			C32.6,57.4,31.2,59.8,31.8,62.2z"/>
		<path id="Path_700" style="fill:#283D75;" d="M36.1,24c0,2.3-1.9,4.2-4.2,4.2c-2.3,0-4.2-1.9-4.2-4.2c0-2.3,1.9-4.2,4.2-4.2l0,0
			C34.2,19.8,36,21.7,36.1,24z"/>
		<path id="Path_701" style="fill:#283D75;" d="M40.8,23.6c0,2.3-1.9,4.2-4.2,4.2c-2.3,0-4.2-1.9-4.2-4.2c0-2.3,1.9-4.2,4.2-4.2l0,0
			c2.3,0,4.2,1.8,4.2,4.1C40.8,23.5,40.8,23.5,40.8,23.6z"/>
		<path id="Path_702" style="fill:#283D75;" d="M41.5,27.9c0,2.3-1.9,4.2-4.2,4.2c-2.3,0-4.2-1.9-4.2-4.2c0-2.3,1.9-4.2,4.2-4.2l0,0
			C39.6,23.6,41.5,25.5,41.5,27.9C41.5,27.9,41.5,27.9,41.5,27.9z"/>
	</g>
	<g id="Group_1818" transform="translate(9448.974 1706.795)">
		<g id="Group_1816" transform="translate(0 0)">
			<path id="Path_703" style="opacity:0.4;fill:#A8C4E5;enable-background:new    ;" d="M271.4,89.4v-9.2l0,0c0-1.8-1.1-3.5-3.3-4.8
				l-82.9-48c-5-2.9-13.7-2.5-19.4,0.8L15.7,114.6c-3,1.7-4.6,3.9-4.8,6l0,0v0.7l0.2,7.6l0,0c-0.8,2.3,0.2,4.7,3.1,6.3l82.9,48
				c2.9,1.5,6.1,2.1,9.4,2c0.9,0,1.7-0.2,2.6-0.2c1.7-0.2,3.4-0.7,5.1-1.4c0.8-0.3,1.6-0.7,2.3-1.1L266.7,96c3-1.7,4.6-4,4.8-6.1
				l0,0L271.4,89.4z"/>
			<g id="Group_1815">
				<path id="Path_704" style="fill:#FFFFFF;" d="M0.2,122.8L0,114.5l10.7,7c0,0-3,7.6-3.3,7.3C7,128.4,0.2,122.8,0.2,122.8z"/>
				<path id="Path_705" style="fill:#FFFFFF;" d="M86.2,177.2l-82.9-48c-5-2.9-4.3-7.9,1.4-11.2L155,31.6c5.7-3.3,14.4-3.6,19.4-0.8
					l82.9,48c5,2.9,4.3,7.9-1.4,11.2l-150.3,86.3C99.9,179.6,91.2,180,86.2,177.2z"/>
				<path id="Path_706" style="fill:#DBEFFF;" d="M95.4,131.1l59.8-99.6c5.7-3.3,14.4-3.6,19.4-0.8l82.9,48c5,2.9,4.3,7.9-1.4,11.2
					l-150.3,86.4c-3.1,1.7-6.5,2.6-10,2.7L95.4,131.1z"/>
				<path id="Path_707" style="fill:#DBEFFF;" d="M160.7,98.1L176,77.5l84.7-3.4l-0.1,9.7L168,113.1L160.7,98.1z"/>
				<path id="Path_708" style="fill:#2C4482;" d="M81.8,169.4c0,1.4-1.1,2-2.3,1.3c-1.3-0.9-2.2-2.3-2.3-3.9c0-1.4,1.1-2,2.3-1.3
					C80.8,166.3,81.6,167.8,81.8,169.4z"/>
				<path id="Path_709" style="fill:#2C4482;" d="M86.2,167.6l-82.9-48c-5-2.9-4.3-7.9,1.4-11.2L155,22.1c5.7-3.3,14.4-3.6,19.4-0.8
					l82.9,48c5,2.9,4.3,7.9-1.4,11.2l-150.3,86.4C99.9,170.2,91.2,170.5,86.2,167.6z"/>
				<path id="Path_710" style="fill:#5366C4;" d="M218.6,55.1l-22.9-13.2c-0.9-0.5-0.8-1.5,0.3-2.1l0,0c1.1-0.6,2.5-0.7,3.7-0.2
					l22.9,13.2c0.9,0.5,0.8,1.5-0.3,2.1l0,0C221.2,55.6,219.8,55.7,218.6,55.1z"/>
				<path id="Path_711" style="fill:#2C4482;" d="M52.2,154.4l-18.4-10.7c-0.9-0.6-1.4-1.6-1.4-2.7l0,0c0-1.1,0.6-1.5,1.4-1.1
					l18.4,10.7c0.9,0.6,1.4,1.6,1.4,2.7l0,0C53.7,154.3,53,154.9,52.2,154.4z"/>
				<path id="Path_712" style="fill:#2C4482;" d="M234.4,98.9l9.1-5.2c0.6-0.4,1-1.1,1-1.9l0,0c0-0.7-0.5-1.1-1-0.8l-9.1,5.2
					c-0.6,0.4-1,1.1-1,1.9l0,0C233.4,98.9,233.9,99.2,234.4,98.9z"/>
				<path id="Path_713" style="fill:#2C4482;" d="M221.6,106.9l9.1-5.2c0.6-0.4,1-1.1,1-1.9l0,0c0-0.7-0.5-1.1-1-0.8l-9.1,5.2
					c-0.6,0.4-1,1.1-1,1.9l0,0C220.6,106.9,221.1,107.2,221.6,106.9z"/>
				<path id="Path_714" style="fill:#97CBFF;" d="M159.7,27L33.3,99.6c-2.1,1.2-2.8,3.9-1.6,6c0.4,0.7,0.9,1.2,1.6,1.6l76.6,44.3
					c1.4,0.8,3,0.8,4.4,0l126.4-72.7c2.1-1.2,2.8-3.9,1.6-6c-0.4-0.7-0.9-1.2-1.6-1.6L164.1,27C162.7,26.2,161.1,26.2,159.7,27z"/>
			</g>
		</g>
		<g id="Group_1817" transform="translate(114.145 27.873)">
			<path id="Path_715" style="fill:#2C4482;" d="M79.4,27.3c-18.3-10.5-47.7-10.6-65.9-0.2c-18.1,10.5-18.1,27.5,0.2,38
				s47.7,10.6,65.9,0.2C97.7,54.9,97.6,37.8,79.4,27.3z M24.6,58.9c-12.2-7.1-12.3-18.5-0.2-25.5s32-7,44.2,0.1
				C80.8,40.6,80.9,52,68.8,59C56.5,66,36.8,66,24.6,58.9L24.6,58.9z"/>
			<path id="Path_716" style="fill:#FF5C97;" d="M79.6,65.3C90.7,58.9,94.9,50,92.4,41.7l-15,1.7c1.6,5.5-1.3,11.4-8.6,15.6
				c-10,5.8-25.3,6.8-37.2,2.9l-7.9,7.6C41.4,75.4,64.5,74,79.6,65.3z"/>
			<path id="Path_717" style="fill:#FFFFFF;" d="M49.3,19.3l-1.2,8.8c7.5,0.2,14.8,2,20.5,5.3c5.1,2.9,8.2,6.7,9,10.7l15.3-0.8
				c-1.1-5.9-5.6-11.6-13.4-16.1C71,22.4,60.2,19.8,49.3,19.3z"/>
		</g>
		<path id="Path_718" style="fill:#FFFFFF;" d="M120.8,116.5L85.6,96.2c-2.3-1.4-2-3.7,0.7-5.2l0,0c2.6-1.5,6.7-1.7,9.1-0.4
			l35.2,20.3c2.3,1.4,2,3.7-0.7,5.2l0,0C127.2,117.7,123.1,117.8,120.8,116.5z"/>
		<path id="Path_719" style="fill:#FFFFFF;" d="M103.4,126l-35.2-20.3c-2.3-1.4-2-3.7,0.7-5.2l0,0c2.6-1.5,6.7-1.7,9.1-0.4
			l35.2,20.3c2.3,1.4,2,3.7-0.7,5.2l0,0C109.9,127.1,105.8,127.4,103.4,126z"/>
	</g>
	<g id="Group_1831" transform="translate(9850.762 1456.256)">
		<g id="Group_1819" transform="translate(44.341 26.942)">
			<path id="Path_720" style="fill:#FFC2B0;" d="M15.3,23c-1.1,7.4-3.9,12.8-7.5,19.1c-1.2,2.1-2.5,3.9-2.1,6.3
				c0.5,3.3,1.6,6.5,2,9.9c0.4,3.7-5.4,3.7-5.8,0c-0.7-6-3.5-10.7-0.5-16.5c1.5-3.1,3.6-5.9,5.1-8.9c1.9-3.6,2.6-7.6,3.2-11.5
				C10.2,17.8,15.9,19.3,15.3,23L15.3,23z"/>
		</g>
		<g id="Group_1821" transform="translate(45.062 26.038)">
			<g id="Group_1820">
				<path id="Path_721" style="fill:#88BDEB;" d="M16,24.1c-2.4,6.8-5.6,13.1-8.2,19.8c-1.8,4.6-9.4,2.6-7.5-2
					c2.6-6.6,5.8-13,8.2-19.8C10.2,17.3,17.7,19.3,16,24.1L16,24.1z"/>
			</g>
		</g>
		<g id="Group_1822" transform="translate(35.333 65.222)">
			<path id="Path_722" style="fill:#FFC2B0;" d="M27.9,26.9c-6.6,2.9-14.6,8.5-18,15c-2,3.9-1.7,7.8-1.4,11.9
				C8.8,61,9.2,68.2,9.6,75.4c0.3,5.3-7.9,5.3-8.2,0c-0.5-7.9-0.8-15.8-1.3-23.6c-0.3-5.5,0.5-10.9,3.6-15.6
				c4.5-6.9,12.5-13.1,19.9-16.4C28.5,17.6,32.7,24.7,27.9,26.9L27.9,26.9z"/>
		</g>
		<g id="Group_1823" transform="translate(11.961 76.769)">
			<path id="Path_723" style="fill:#FFC2B0;" d="M1.1,45.8c6-6.5,10.2-14.1,16.9-19.9c4.2-3.6,8.6-5.7,14.1-4.1
				c6.5,1.9,11.9,2.3,17.8-1.7c4.4-2.9,8.5,4.2,4.2,7.1c-5.3,3.7-11.9,5.1-18.3,4c-2.3-0.4-4.3-1.1-6.5-1.7
				c-0.4-0.2-0.8-0.2-1.3-0.2c-2,0.2-3.7,2-5.1,3.2C16.8,38.2,12.7,45.4,7,51.6C3.3,55.5-2.5,49.7,1.1,45.8L1.1,45.8z"/>
		</g>
		<path id="Path_724" style="fill:#514677;" d="M14.2,133.6l-0.2-0.5c-0.1-0.3,0-0.7,0.3-0.8l0,0c0.3-0.1,0.7,0,0.8,0.3l0.2,0.5
			c0.1,0.3,0,0.7-0.3,0.8l0,0C14.8,134,14.4,133.9,14.2,133.6z"/>
		<path id="Path_725" style="fill:#423A66;" d="M14,132.4l1.7-2.2c0.2-0.3,0.6-0.3,0.8-0.2l0,0c0.3,0.2,0.3,0.6,0.2,0.8l-1.7,2.2
			c-0.2,0.3-0.6,0.3-0.8,0.2l0,0C13.9,133.1,13.9,132.7,14,132.4z"/>
		<g id="Group_1824" transform="translate(0 101.644)">
			<path id="Path_726" style="fill:#2C4482;" d="M22.2,24c0.2-1.4-0.4-3.6-1.3-3.9l-4.4,1.7l-0.4-0.2C14,22.2,3.9,24,0.8,25.1
				c-1.6,0.5-0.3,2.5-0.3,2.5c2.3,2.3,5.2,3.9,8.4,4.6c2.5,0.1,2.5-2.2,6-3.4c0.6-0.2,1.6-0.2,1.4,0.3l-2,2.5l1.1,0.5
				c0,0,3.3-3.3,5.7-5.4C21.7,26,22.2,25,22.2,24z"/>
			<path id="Path_727" style="fill:#FFC2B0;" d="M20.6,19.3l-2.7,0.2c0,0-9.1,3.5-11,4.2c-2,0.8,1.5,7.6,12.1,1.4
				C25.3,22.4,20.6,19.3,20.6,19.3z"/>
		</g>
		<path id="Path_728" style="fill:#BC4073;" d="M53.2,79.5c-14.1,8.9-22.7,17.1-22.2,21c0,0,7-3.9,12.5-0.7c5.4,3.2,4.3,5.9,2.9,7.3
			c-0.5,0.5,2.4,3.5,3,3.6c6.6,0.2,26.8-2.2,27.2-14.5c0.3-10.4-1.1-11.7-1.1-11.7S60.9,89.6,53.2,79.5z"/>
		<path id="Path_729" style="fill:#DBEFFF;" d="M57.4,50.1c0,0-5.4,7.5-5.1,12.2c0.2,3,2.1,6.5,2.4,7.5c2.1,7.9,0.5,10.2,0.7,12.4
			c0,0,1.3,7.6,20,1.6l8.3-21.9L57.4,50.1z"/>
		<path id="Path_730" style="fill:#DBEFFF;" d="M81.6,66.9c0.2-0.3,2-3.1,2-3.4c0.8-3.7,3-6.6-1-11.5c-0.8-1.1-10-6.6-17.1-8.4
			c-3.5-0.8-7,0.9-8.6,4.1c-0.8,1.8-1.4,3.7-2,5.6c-0.8,7.4,3.1-2.1,3.3,2c0-0.1,0-0.2-0.1-0.3c0,0,0.5,7,0.8,12.3
			c0.2,3.3,0.4,5.8,0.4,6.1v0.1l11.9,10.6l7.3-11.5l0,0L81.6,66.9z"/>
		<path id="Path_731" style="fill:#FFC2B0;" d="M66.1,43.6c0,0-6.6,6.1-1.4,11c5.1,4.9,15-4.8,15-4.8C74.9,46.5,70.4,44.2,66.1,43.6
			z"/>
		<path id="Path_732" style="fill:#DBEFFF;" d="M83.7,63.5c-0.8,0.3-3,3.3-4.8,4.9c-3.4,3-8.4,4.8-12.8,3.5
			c-4.4-1.5-8.7-3.3-12.8-5.6c0,0,1.4,8,0,13.2c-0.9,3.5,6.4,6.1,6.4,6.1c8.1,3,15.9-1.1,15.9-1.1l6-16.1L83.7,63.5z"/>
		<g id="Group_1826" transform="translate(61.995 23.456)">
			<g id="Group_1825">
				<path id="Path_733" style="fill:#BC4073;" d="M2.3,19.9c-1.6,3.4-4,9-0.3,11.6c5.1,3.6,11.3-0.5,15.3-3.9c1-0.8-0.5-2.3-1.4-1.4
					C13,28.7,8,32.3,4.1,30.4c-2.8-1.4-2-2.9-1.4-5.4C3,23.6,3.4,22.3,4,21C4.6,19.7,2.8,18.7,2.3,19.9L2.3,19.9z"/>
			</g>
		</g>
		<path id="Path_734" style="fill:#514677;" d="M44.1,148.9l-0.5-0.3c-0.3-0.2-0.4-0.5-0.2-0.8c0,0,0,0,0,0l0,0
			c0.2-0.3,0.5-0.4,0.8-0.2c0,0,0,0,0,0l0.5,0.3c0.3,0.2,0.4,0.5,0.2,0.8c0,0,0,0,0,0l0,0C44.7,148.9,44.4,149,44.1,148.9
			C44.1,148.9,44.1,148.9,44.1,148.9z"/>
		<path id="Path_735" style="fill:#423A66;" d="M43.2,148v-2.7c0-0.3,0.3-0.6,0.6-0.6l0,0c0.3,0,0.6,0.3,0.6,0.6v2.7
			c0,0.3-0.3,0.6-0.6,0.6l0,0C43.5,148.7,43.3,148.4,43.2,148C43.2,148.1,43.2,148.1,43.2,148z"/>
		<g id="Group_1827" transform="translate(28.874 115.615)">
			<path id="Path_736" style="fill:#2C4482;" d="M16.8,22.1c-0.7-1.3-2.4-2.7-3.4-2.4l-2.5,4l-0.4,0.2c-1.4,1.7-8.4,9.2-10.3,11.9
				c-1,1.4,1.3,2.2,1.3,2.2c3.2,0.5,6.5,0,9.4-1.3c2-1.4,0.7-3.2,2.8-6.3c0.4-0.5,1.2-1.1,1.3-0.5l-0.2,3.2l1.1-0.2
				c0,0,0.7-4.6,1.3-7.7C17.7,24.1,17.5,23,16.8,22.1z"/>
			<path id="Path_737" style="fill:#FFC2B0;" d="M12.8,19.4l-2.1,1.7c0,0-5.3,8.2-6.3,9.9c-1.1,1.9,5.7,5.2,10.6-6
				C18.5,19,12.8,19.4,12.8,19.4z"/>
		</g>
		<g id="Group_1828" transform="translate(54.454 5.2)">
			<path id="Path_738" style="fill:#2C4482;" d="M0.7,26.5c-0.8,2.3-1.1,5.1,0.5,7.1c0.3,0.3,0.6,0.7,0.9,1c0.8,0.9,1.5,1.8,2.1,2.9
				c0.1,0.2,0.2,0.3,0.4,0.5c0.4,0.2,1,0.1,1.3-0.2c0.3-0.4,0.6-0.8,0.8-1.2c0.8-1.2,16.9,8.2,17.7,7c1.1-1.6-2.9-19.4-3.3-21.3
				C20.4,19.8,8.6,23,6.6,21.5c-0.4-0.3-0.8-0.6-1.1-0.9l0,0c-0.5-0.5-0.9-1.5-1.7-1.2c-0.7,0.3-0.9,1.4-1.1,2
				C2.1,23.3,1.2,24.8,0.7,26.5z"/>
		</g>
		<path id="Path_739" style="fill:#FFC2B0;" d="M67,47.8l-3.2-12.5l7.9,2.5L74.2,48C74.8,49.7,69.3,54.2,67,47.8z"/>
		<path id="Path_740" style="fill:#EA8A6C;" d="M66.2,44.5l3.6-1.8c-0.7,1.4-1.7,2.6-2.9,3.6L66.2,44.5z"/>
		<path id="Path_741" style="fill:#FFC2B0;" d="M66.7,43.5l-2.1,0.1c-3.3,0.1-6-2.5-6.1-5.7L58.1,27c-0.1-3.3,2.5-6,5.7-6.1l2.1-0.1
			c3.3-0.1,6,2.5,6.1,5.7l0.4,10.8c0.1,3.2-2.4,6-5.6,6.1C66.8,43.5,66.8,43.5,66.7,43.5z"/>
		<path id="Path_742" style="fill:#2C4482;" d="M68.3,29.7c-2.5-3-7,0.6-9.5-0.4c-2.6-1.1-1.7-3.8,0.1-6c1.2-1.5,2.9-2.6,4.7-3.1
			c6.9-2.6,13.8,0.3,14.1,8.2c0,0,0.9,10.7-5.4,12.2l-0.7-1.5c0,0,3.6-3.9-0.2-6.3c-0.9-0.5-0.9-0.5-0.8-1.9S69.2,30.8,68.3,29.7z"
			/>
		<path id="Path_743" style="fill:#FFC2B0;" d="M73.8,39.3c-0.6,0.7-1.6,0.7-2.3,0.1c-0.2-0.2-0.4-0.5-0.5-0.8c-0.4-1.4,0-3,1.1-4
			c0.6-0.7,1.6-0.7,2.3-0.1c0.2,0.2,0.4,0.5,0.5,0.8C75.4,36.7,74.9,38.2,73.8,39.3z"/>
		<path id="Path_744" style="fill:#2C4482;" d="M57.1,35.6c0,0,0.1-3.6,8.7-8.3s0.4-0.2,0.4-0.2l-8.5-2C57.8,25.1,54.4,29,57.1,35.6
			z"/>
		<g id="Group_1829" transform="translate(63.814 38.953)">
			<path id="Path_745" style="fill:#FFC2B0;" d="M22.6,21.5c0.6,4.8,0.8,9.7,0.6,14.5c-0.1,4.5,1.2,9.7-0.1,14.2
				c-0.8,2.9-3.2,4.2-6,4.5c-4.8,0.6-9.6,0.3-14.4,1c-3.7,0.5-3.7-5.4,0-5.8c4.2-0.5,8.2-0.6,12.4-0.8c2.1-0.1,2.3,0.3,2.6-1.4
				c0.5-4.2-0.5-8.5-0.2-12.8c0.2-3.9,0.1-7.8-0.5-11.7C16.5,19.3,22.1,17.7,22.6,21.5L22.6,21.5z"/>
		</g>
		<g id="Group_1830" transform="translate(77.739 33.797)">
			<path id="Path_746" style="fill:#FFFFFF;" d="M7.8,22c3.6,9.1,2.6,17.9,2.4,27.5c-0.2,5-7.9,5-7.8,0C2.7,40.6,3.6,32.6,0.3,24
				C-1.5,19.4,6.1,17.3,7.8,22L7.8,22z"/>
		</g>
		<path id="Path_747" style="fill:#FFC2B0;" d="M50.2,90.8L50.2,90.8c-1.8,0.3-3.5-1-3.9-2.8l-1.1-7.2c-0.3-1.8,1-3.5,2.8-3.9l0,0
			c1.8-0.3,3.5,1,3.9,2.8L53,87C53.3,88.8,52.1,90.5,50.2,90.8C50.2,90.8,50.2,90.8,50.2,90.8z"/>
		<path id="Path_748" style="fill:#A8C4E5;" d="M68.7,95.5v-0.7l-0.8,0.3l-0.2-0.4l-21-12.2c-0.3-0.2-0.7-0.1-1,0.1l-9.1,5.2v-0.2
			L35,88.4v0.7l0,0c0,0.1,0.1,0.1,0.2,0.2l21.9,12.6c0.3,0.2,0.7,0.1,1-0.1l10.5-6C68.6,95.8,68.7,95.7,68.7,95.5L68.7,95.5z"/>
		<path id="Path_749" style="fill:#E1EAF4;" d="M56.9,101.3L35,88.7c-0.2-0.2-0.2-0.4,0.1-0.6l10.5-6c0.3-0.1,0.7-0.2,1-0.1
			l21.9,12.6c0.2,0.2,0.2,0.4-0.1,0.6l-10.5,6C57.6,101.4,57.2,101.4,56.9,101.3z"/>
		<path id="Path_750" style="fill:#A8C4E5;" d="M58.4,93.2l-5.3-3c-0.1,0-0.1-0.1,0-0.2l2.6-1.4c0-0.1,0.1-0.1,0.2,0c0,0,0,0,0,0
			l5.3,3c0.1,0,0.1,0.1,0,0.2l-2.6,1.4H58.4z"/>
		<path id="Path_751" style="fill:#FFFFFF;" d="M56.4,87.1c-0.1-0.6-0.5-1.2-1-1.5L33.7,73.2c-0.2-0.1-0.4-0.2-0.5-0.1l0,0
			c0,0-0.1,0-0.1,0.1c0,0,0,0,0,0L32.4,74l0.7-0.1l2,13.4c0.1,0.6,0.5,1.2,1,1.5l20.5,11.7l0.7,0.8l0.1,0.2c0.4,0.1,1.4-0.6,1.4-0.6
			L56.4,87.1z"/>
		<path id="Path_752" style="fill:#2C4482;" d="M57,102L35.2,89.6c-0.5-0.4-0.9-0.9-1-1.5l-2.1-13.5c-0.1-0.6,0.2-0.8,0.7-0.5
			l21.8,12.3c0.5,0.4,0.9,0.9,1,1.5l2.1,13.5C57.8,102,57.5,102.2,57,102z"/>
		<path id="Path_753" style="fill:#FFC2B0;" d="M58.4,94.2L58.4,94.2c-0.6-1.7,0.3-3.6,2.1-4.2c0,0,0,0,0,0l6.1-2
			c1.7-0.6,3.6,0.3,4.2,2.1c0,0,0,0,0,0l0,0c0.6,1.7-0.3,3.6-2.1,4.2c0,0,0,0,0,0l-6.1,2c-1.7,0.6-3.6-0.3-4.2-2
			C58.5,94.3,58.4,94.3,58.4,94.2z"/>
		<path id="Path_754" style="fill:#FFFFFF;" d="M45.5,88.9c0.1,0.7-0.5,0.9-1.4,0.4c-0.9-0.5-1.6-1.3-1.9-2.3
			c-0.1-0.7,0.5-0.9,1.4-0.4C44.5,87.1,45.2,87.9,45.5,88.9z"/>
		<path id="Path_755" style="fill:#2C4482;" d="M67.9,29.4c0,0,6.9,9.1,6.3,15c-0.5,4.9-5.8,8-6.8,15.4c-0.1,0.8,0.5,1.6,1.4,1.7
			c0.5,0.1,1-0.2,1.4-0.6c1.3-1.7,2.9-3.3,4.7-4.5c4.6-3.2,5.4-6.5,5-9s-2.3-20.4-2.3-20.4l-10.6-1.1L67.9,29.4z"/>
	</g>
</g>
</svg>
